<?xml version="1.0" encoding="UTF-8"?>
<svg id="Capa_1" data-name="Capa 1" xmlns="http://www.w3.org/2000/svg" viewBox="0 0 964 1108">
  <defs>
    <style>
      .cls-1 {
        fill: #34476c;
      }

      .cls-2, .cls-3, .cls-4 {
        fill: #fff;
      }

      .cls-5 {
        fill: #32526e;
      }

      .cls-3, .cls-6 {
        stroke: #000;
        stroke-miterlimit: 10;
        stroke-width: 6.37px;
      }

      .cls-7 {
        stroke: #1d1d1b;
      }

      .cls-7, .cls-8 {
        fill: none;
      }

      .cls-9 {
        fill: #2dd582;
      }

      .cls-4, .cls-8 {
        stroke: #fff;
        stroke-linecap: round;
        stroke-linejoin: round;
        stroke-width: 70px;
      }
    </style>
  </defs>
  <g>
    <g>
      <path d="M753.69,545.24c9.82,53.91,9.53,109.18,12.42,163.73,2.29,50.5,10.78,116.31-12.32,162.5-6.07,12.48-15.07,23.21-24.9,32.9-28.94,29.41-63.04,53.29-97.88,75.09-40.41,25.6-82.71,51.39-130.27,61.2-11.8,2.64-24.1,4.72-36.29,4.32-50.52-.89-94.96-32.45-137.55-56.42-17.72-10.46-35.23-21.36-52.12-33.15-11.36-7.8-22.37-16.37-31.64-26.62-52.74-57.69-47.6-142.82-48.91-215.87,.33-47.85,.07-96.15,9.47-143.26,1.3-6.63,3.03-13.6,4.34-20.08-2.91,13.3-5.94,26.89-7.76,40.33-7.22,54.33-5.83,109.4-4.72,164.08,1.79,61.57,6.65,130.88,53.37,176.36,8.43,8.39,18.05,15.49,27.91,22.08,16.97,11.5,34.53,22.07,52.3,32.29,35.52,19.5,70.38,42.84,110.47,51.44,19.88,4.27,40.12,2.91,59.84-1.51,47.13-9.19,88.72-34.02,129.21-58.96,34.98-21.3,69.08-44.41,98.27-73.27,9.79-9.4,18.77-19.75,24.89-31.95,23.23-45.07,15.69-111.63,13.74-161.47-2.52-54.57-2.11-109.84-11.88-163.76h0Z"/>
      <ellipse class="cls-3" cx="592.47" cy="668.38" rx="77.54" ry="110.07"/>
      <ellipse class="cls-6" cx="579.74" cy="665.52" rx="62.14" ry="83.47"/>
      <path class="cls-6" d="M437.9,509.15c-7.52-21.52-45.7-19.08-89.21-3.87-43.51,15.22-69.06,40.11-61.54,61.62s36.06,6.83,79.58-8.39c43.51-15.22,78.69-27.85,71.17-49.37Z"/>
      <path class="cls-6" d="M699.29,554.67c8.44-21.17-21.95-44.39-64.77-61.47-42.82-17.08-78.43-15.06-86.87,6.11-8.44,21.17,22.73,28.82,65.55,45.9,42.82,17.08,77.65,30.63,86.1,9.46Z"/>
      <g>
        <circle class="cls-1" cx="677.57" cy="852.78" r="23.13"/>
        <path d="M700.7,852.78c.19,16.62-16.92,29.07-32.83,23.42-22.05-7.83-22.06-39.03,0-46.85,15.91-5.66,33.03,6.81,32.84,23.44h0Zm0,0c-.16-19.93-24.3-28.98-37.53-14.4-7.34,7.98-7.35,20.84-.01,28.82,13.24,14.59,37.39,5.51,37.54-14.42h0Z"/>
      </g>
      <g>
        <circle class="cls-9" cx="730.16" cy="823.43" r="23.13"/>
        <path d="M753.29,823.43c.19,16.62-16.92,29.07-32.83,23.42-22.05-7.83-22.06-39.03,0-46.85,15.91-5.66,33.03,6.81,32.84,23.44h0Zm0,0c-.16-19.93-24.3-28.98-37.53-14.4-7.34,7.98-7.35,20.84-.01,28.82,13.24,14.59,37.39,5.51,37.54-14.42h0Z"/>
      </g>
      <path d="M811.81,519.76c-8.75,6.32-18.34,10.9-28.2,15.05-9.92,4.01-19.95,7.5-30.62,9.16,8.75-6.33,18.33-10.92,28.2-15.05,9.92-4,19.95-7.49,30.62-9.16h0Z"/>
      <path d="M864.4,441.49c-12.81,9.62-26.73,18.89-40.14,27.72-25.25,.66-51.46,.73-76.65-.05,0,0,2.61-2.61,2.61-2.61-.48,14.88-1.2,31.08-2.61,45.86-1.43-14.76-2.1-30.99-2.61-45.86,0,0-.09-2.52-.09-2.52l2.69-.08c24.89-.77,50.87-.72,75.82-.07,0,0-1.39,.39-1.39,.39,13.77-7.82,28.17-15.85,42.36-22.79h0Z"/>
      <path d="M819.15,402.49c-15.8,12.14-32.64,22.63-49.76,32.71-17.2,9.95-34.61,19.44-52.97,27.21,15.79-12.15,32.63-22.64,49.76-32.71,17.21-9.94,34.62-19.43,52.97-27.21h0Z"/>
      <path d="M806,333.26c-10.94,19.79-23.69,39.64-36.09,58.61-11.38,5.9-24.03,12.17-35.63,17.78-19.46,9.27-39.38,18.51-59.44,26.34,21.93-13.56,45.32-25.93,68.3-37.68,7.72-3.92,15.48-7.76,23.28-11.53l-1.16,1.02c12.92-18.32,26.54-37.25,40.75-54.53h0Z"/>
      <path d="M768.81,276.4c-6.28,26.01-13.73,51.71-21.43,77.33,0,0-.52,1.75-.52,1.75-17.39,2.61-36.72,5.14-54.18,7.29-5.81,.73-11.64,1.36-17.46,2.04l2.29-1.86c-1.52,4.17-4.72,12.55-6.33,16.69-6.36,16.54-13.08,33.41-20.18,49.63,4.69-17.06,10.12-34.41,15.59-51.26,1.63-5.03,4.42-13.56,6.13-18.55,12.18-1.81,24.36-3.59,36.56-5.19,10.24-1.33,24.75-3.25,34.88-4.37,0,0-2.43,2.04-2.43,2.04,8.48-25.37,17.21-50.66,27.07-75.54h0Z"/>
      <path d="M661.39,313.08c-6.55,20.37-14.89,39.98-23.7,59.42-8.95,19.38-18.34,38.5-29.49,56.76,6.54-20.37,14.88-39.98,23.7-59.42,8.96-19.37,18.35-38.5,29.49-56.76h0Z"/>
      <path d="M572.12,387.81c4.3,13.86,4.33,33.14,0,47-4.33-13.86-4.3-33.13,0-47h0Z"/>
      <path d="M651,224.29c-11.41,11.52-23.21,22.62-35.13,33.59,0,0,.69-2.56,.69-2.56,3.22,8.4,7.3,19.96,10.4,28.51-11.76,10.91-24.23,22.06-36.27,32.65,0,0-1.27,1.11-1.27,1.11l-1.59-.43c-9.15-2.54-18.28-5.14-27.39-7.8,0,0,2.65-.82,2.65-.82-12.05,13.32-25.99,28.44-38.67,41.11,10.56-14.46,23.4-30.56,34.71-44.5,0,0,.98-1.21,.98-1.21,9.79,2.33,19.56,4.78,29.31,7.26,0,0-2.86,.68-2.86,.68,11.33-10.32,23.34-21.05,34.92-31.11,0,0-.83,3.19-.83,3.19-2.84-8.6-6.44-20.14-9.09-28.69,0,0,1.19-.98,1.19-.98,12.55-10.25,25.22-20.35,38.24-30h0Z"/>
      <path d="M577.01,147.25c-.47,23.51-1.44,47-2.6,70.48,0,0-.07,1.24-.07,1.24-8.27,4.51-16.49,9.12-24.79,13.57,0,0-23.71,12.8-23.71,12.8l1.63-2.63-.64,32.87c-.76,32.4-1.9,67.91-3.34,100.11-20.38,6.89-41.54,14.09-62.05,20.43,19.29-8.21,39.62-16.35,59.17-24.06,0,0-1.43,2-1.43,2,.03-31.63,.59-66.81,1.31-98.62,0,0,.89-32.86,.89-32.86l.05-1.82,1.58-.81,23.98-12.27c7.99-4.11,16.04-8.08,24.06-12.13,0,0-1.22,1.88-1.22,1.88,2.11-23.41,4.39-46.81,7.19-70.16h0Z"/>
      <path d="M424.75,273.21c2.55,41.62,3.06,86,3.18,127.8,0,0-3.18-3.18-3.18-3.18,0,0,28.45,.14,28.45,.14,9.46,.14,21.78,.25,31.14,.52-.51,16.13-1.4,37.31-2.33,53.44-.24,4.19-.81,12.76-1.14,16.96-.24-4.26-.59-12.72-.75-16.98-.53-15.13-.95-35.79-1.07-50.92,0,0,2.6,2.63,2.6,2.63-17.51,.42-42.42,.52-60.1,.6,.14-42.91,.56-88.24,3.2-130.99h0Z"/>
      <path d="M398.46,388.91c4.3,14.96,4.33,35.79,0,50.75-4.33-14.96-4.3-35.78,0-50.75h0Z"/>
      <path d="M481.65,147.25c1.84,46.19,1.05,93.51-.45,139.68-.46,11.01-.86,22.97-1.49,33.92-13.29,4.73-28.07,9.82-41.5,14.17-4.47,1.44-8.95,2.88-13.46,4.23,4.26-2.01,8.54-3.94,12.83-5.86,12.37-5.51,26.34-11.47,38.87-16.62,0,0-1.58,2.24-1.58,2.24-.05-10.34,.13-21.83,.22-32.23,.81-46.2,2.41-93.49,6.56-139.53h0Z"/>
      <path d="M384.39,188.34c3.81,26.13,6.75,52.38,9.46,78.65,0,0,.13,1.33,.13,1.33l-1.03,.95c-8.2,7.59-20.27,18.6-28.49,25.96,0,0,1.02-2.71,1.02-2.71,6.01,47.4,11.49,95.77,14.63,143.47-8.6-47.02-15.09-95.26-20.83-142.7,0,0-.19-1.64-.19-1.64l1.21-1.07c8.18-7.33,20.6-18.11,28.99-25.4,0,0-.91,2.28-.91,2.28-1.78-26.35-3.32-52.71-3.99-79.11h0Z"/>
      <path d="M301.23,166.94c7.89,22.68,15.26,45.53,22.44,68.44,0,0,.42,1.36,.42,1.36,0,0-1.09,1.04-1.09,1.04-8.68,8.25-21.26,20.29-30.16,28.57,0,0,.9-2.77,.9-2.77,3.24,15.25,6.75,32.37,9.83,47.65,0,0,3.15,15.91,3.15,15.91,0,0-2.04-2.32-2.04-2.32,0,0,10.69,3.71,10.69,3.71,8.18,2.92,25.38,8.97,33.72,11.97,0,0,.08,1.76,.08,1.76,1.29,29.29,2.52,60.1,2.82,89.36-3.29-29.07-5.88-59.8-8.19-89.03,0,0,1.81,2.38,1.81,2.38-7.58-2.65-24.9-8.09-32.22-10.66-1.1-.37-11.63-3.94-12.39-4.19,0,0-.36-1.75-.36-1.75-3.09-14.79-6.7-32.87-9.61-47.7-1.17-5.85-2.32-11.73-3.41-17.6,0,0,1.21-1.09,1.21-1.09,9.13-8.1,21.89-19.78,30.98-27.68,0,0-.67,2.39-.67,2.39-6.28-23.17-12.36-46.4-17.92-69.76h0Z"/>
      <path d="M258.43,293.34c8.35,23.67,14.81,47.85,20.83,72.17,5.84,24.36,11.2,48.81,14.64,73.67-8.36-23.66-14.82-47.84-20.83-72.17-5.82-24.37-11.19-48.81-14.64-73.67h0Z"/>
      <path d="M197.28,239.22c10,27.68,17.25,56.22,23.66,84.91,0,0-2.87-2.26-2.87-2.26,12.02,.28,24.03,.8,36.01,1.78,4,.31,8,.7,12,1.18-7.99,.95-15.99,1.54-24.01,2.01-8.74,.51-17.5,.82-26.26,.99-2.13-7.85-4.13-15.75-6.03-23.65-5.1-21.46-9.72-43.04-12.51-64.95h0Z"/>
      <path d="M238.99,388.91c6.11,9.56,10.43,19.86,14.31,30.41,3.74,10.61,6.96,21.3,8.32,32.57-6.12-9.55-10.44-19.86-14.31-30.41-3.72-10.61-6.94-21.31-8.32-32.57h0Z"/>
      <path d="M130.02,338.89c6.83,16.94,13.55,36.14,19.52,53.52,0,0,5.98,18,5.98,18l-2-1.99c5.83,1.69,11.66,3.39,17.47,5.14,17.46,5.27,36.46,11.16,53.65,16.98,2.58,16.97,5.36,36.22,7.05,53.27-4.26-16.03-8.41-34.63-11.84-50.91,0,0,1.76,1.98,1.76,1.98-16.92-4.6-35.6-10.11-52.46-15.26-6.33-1.93-12.65-3.92-18.95-5.92,0,0-.44-1.49-.44-1.49,0,0-5.33-18.21-5.33-18.21-4.95-17.7-10.41-37.26-14.42-55.11h0Z"/>
      <path d="M101.41,447c14.61,9.87,28.85,20.62,42.74,31.47,0,0-1.68-.63-1.68-.63,17.44,.18,34.87,.72,52.29,1.63,6.65,.39,13.34,.71,19.99,1.21,0,0-.09,2.4-.09,2.4-.49,14.23-1.2,30.49-2.58,44.64-1.36-14.13-2.12-30.41-2.58-44.64,0,0,2.49,2.58,2.49,2.58-5.82,0-11.63-.14-17.44-.2-17.44-.31-34.86-1-52.27-2.04,0,0-.99-.05-.99-.05,0,0-.68-.58-.68-.58-13.35-11.51-26.67-23.39-39.19-35.79h0Z"/>
      <path d="M145.56,564.25c9.7-4.96,19.96-8.08,30.43-10.72,10.5-2.5,21.04-4.47,31.94-4.54-9.7,4.97-19.96,8.09-30.43,10.72-10.51,2.49-21.04,4.46-31.94,4.54h0Z"/>
      <path d="M228.47,611.36c-7.59,8.17-20.82,14.22-31.97,14.54,7.57-8.19,20.83-14.19,31.97-14.54h0Z"/>
      <path d="M732.32,613.8c9.91-1.66,22.36,1.82,29.93,8.46-9.92,1.69-22.34-1.85-29.93-8.46h0Z"/>
      <g>
        <circle class="cls-5" cx="117.38" cy="571.69" r="28.66"/>
        <path d="M146.05,571.69c-.08,26.22-31.38,40.15-50.87,22.21-12.77-11.64-12.78-32.78-.01-44.42,19.49-17.97,50.8-4.01,50.88,22.22h0Zm0,0c.16-15.39-13.34-28.17-28.66-27.06-14.13,.68-25.68,13.18-25.48,27.06-.21,13.89,11.34,26.4,25.48,27.08,15.32,1.1,28.82-11.69,28.66-27.08h0Z"/>
      </g>
      <g>
        <circle class="cls-9" cx="80.78" cy="435.99" r="23.22"/>
        <path d="M103.99,435.99c.19,16.68-16.99,29.18-32.95,23.5-22.12-7.86-22.13-39.16,0-47.02,15.97-5.68,33.15,6.83,32.96,23.52h0Zm0,0c-.16-20-24.4-29.09-37.68-14.47-7.38,8.01-7.38,20.93-.01,28.94,13.29,14.65,37.54,5.53,37.69-14.48h0Z"/>
      </g>
      <g>
        <circle class="cls-5" cx="118.42" cy="317.45" r="24.11"/>
        <path d="M142.53,317.45c.15,17.37-17.58,30.23-34.19,24.33-22.87-8.2-22.87-40.47,0-48.67,16.61-5.91,34.36,6.98,34.2,24.34h0Zm0,0c-.14-20.78-25.4-30.3-39.22-15.1-7.72,8.34-7.73,21.87-.01,30.22,13.82,15.21,39.09,5.67,39.23-15.11h0Z"/>
      </g>
      <g>
        <circle class="cls-9" cx="192.25" cy="215.64" r="24.11"/>
        <path d="M216.37,215.64c.15,17.37-17.58,30.23-34.19,24.33-22.87-8.2-22.87-40.47,0-48.67,16.61-5.91,34.36,6.98,34.2,24.34h0Zm0,0c-.14-20.78-25.4-30.3-39.22-15.1-7.72,8.34-7.73,21.87-.01,30.22,13.82,15.21,39.09,5.67,39.23-15.11h0Z"/>
      </g>
      <g>
        <circle class="cls-5" cx="292.34" cy="139.71" r="27.24"/>
        <path d="M319.58,139.71c-.08,24.95-29.84,38.25-48.43,21.2-12.22-11.1-12.23-31.3-.01-42.4,18.59-17.08,48.37-3.75,48.44,21.21h0Zm0,0c.15-14.61-12.69-26.74-27.24-25.63-13.36,.7-24.23,12.52-24.05,25.63-.19,13.12,10.68,24.96,24.05,25.65,14.55,1.1,27.39-11.04,27.23-25.65h0Z"/>
      </g>
      <g>
        <circle class="cls-9" cx="480.34" cy="106.06" r="40.01"/>
        <path d="M520.35,106.06c.37,21.68-18.08,41.08-40.01,41.6-16.77,.87-33.3-9.56-39.8-25.11-4.5-10.38-4.51-22.6,0-32.98,6.49-15.56,23.03-26,39.81-25.12,21.94,.53,40.39,19.93,40.01,41.61h0Zm0,0c.15-21.64-18.43-39.52-40.01-38.41-20.22,.57-37.16,18.44-36.83,38.41-.34,19.98,16.59,37.87,36.83,38.43,21.59,1.1,40.16-16.79,40.01-38.43h0Z"/>
      </g>
      <g>
        <circle class="cls-5" cx="251.58" cy="273.44" r="19.9"/>
        <path d="M271.48,273.44c.17,14.35-14.54,25.2-28.36,20.43-19.39-6.7-19.42-34.16,0-40.88,13.82-4.77,28.54,6.1,28.37,20.45h0Zm0,0c.16-10.59-9.43-19.42-19.9-18.3-9.42,.77-16.82,9.11-16.71,18.3-.11,9.19,7.28,17.55,16.71,18.31,10.47,1.12,20.05-7.72,19.9-18.31h0Z"/>
      </g>
      <g>
        <circle class="cls-9" cx="382.28" cy="168.45" r="19.9"/>
        <path d="M402.17,168.45c.17,14.35-14.55,25.2-28.36,20.43-19.39-6.7-19.42-34.16,0-40.88,13.82-4.77,28.54,6.1,28.37,20.45h0Zm0,0c.16-10.59-9.43-19.42-19.9-18.3-9.42,.77-16.82,9.11-16.71,18.3-.11,9.19,7.28,17.55,16.71,18.31,10.47,1.12,20.05-7.72,19.9-18.31h0Z"/>
      </g>
      <g>
        <circle class="cls-5" cx="579.74" cy="127.35" r="19.9"/>
        <path d="M599.63,127.35c.17,14.35-14.54,25.2-28.36,20.43-19.39-6.7-19.42-34.16,0-40.88,13.82-4.77,28.54,6.1,28.37,20.45h0Zm0,0c.16-10.59-9.43-19.42-19.9-18.3-9.42,.77-16.82,9.11-16.71,18.3-.12,9.19,7.28,17.55,16.71,18.31,10.47,1.12,20.05-7.72,19.9-18.31h0Z"/>
      </g>
      <g>
        <circle class="cls-5" cx="671.46" cy="290.82" r="22.19"/>
        <path d="M693.65,290.81c.19,15.96-16.23,27.95-31.53,22.55-21.28-7.5-21.29-37.62,0-45.12,15.31-5.4,31.73,6.61,31.54,22.57h0Zm0,0c-.15-19.09-23.29-27.73-35.93-13.74-6.98,7.63-6.99,19.86-.01,27.49,12.64,14.01,35.79,5.34,35.94-13.75h0Z"/>
      </g>
      <g>
        <circle class="cls-5" cx="777.85" cy="256.42" r="22.19"/>
        <path d="M800.04,256.42c.19,15.96-16.23,27.95-31.53,22.55-21.28-7.5-21.29-37.62,0-45.12,15.31-5.4,31.73,6.61,31.54,22.57h0Zm0,0c-.15-19.09-23.29-27.73-35.93-13.74-6.98,7.63-6.99,19.86-.01,27.49,12.64,14.01,35.79,5.34,35.94-13.75h0Z"/>
      </g>
      <g>
        <circle class="cls-9" cx="816.62" cy="316.31" r="19.66"/>
        <path d="M836.27,316.3c.17,14.18-14.37,24.92-28.03,20.21-19.19-6.61-19.23-33.8,0-40.44,13.67-4.71,28.21,6.04,28.04,20.23h0Zm0,0c.15-10.46-9.32-19.18-19.66-18.05-9.29,.78-16.57,9-16.47,18.05-.11,9.06,7.17,17.3,16.47,18.07,10.34,1.12,19.81-7.61,19.66-18.07h0Z"/>
      </g>
      <g>
        <circle class="cls-5" cx="834.08" cy="394.1" r="17.46"/>
        <path d="M851.55,394.1c.15,12.64-12.76,22.29-25,18.19-17.4-5.82-17.4-30.57,0-36.39,12.25-4.11,25.16,5.56,25.01,18.2h0Zm0,0c.17-9.24-8.36-17-17.46-15.86-8.11,.8-14.36,7.98-14.28,15.86-.09,7.88,6.16,15.09,14.28,15.88,9.11,1.13,17.63-6.64,17.46-15.88h0Z"/>
      </g>
      <g>
        <circle class="cls-9" cx="884" cy="429.84" r="22.44"/>
        <path d="M906.44,429.84c.19,16.14-16.41,28.25-31.88,22.78-21.49-7.59-21.49-37.99,0-45.58,15.47-5.47,32.07,6.66,31.88,22.8h0Zm0,0c-.16-19.32-23.56-28.06-36.36-13.92-7.08,7.72-7.08,20.12-.01,27.85,12.8,14.16,36.21,5.39,36.37-13.93h0Z"/>
      </g>
      <g>
        <circle class="cls-5" cx="835.65" cy="513.64" r="25.91"/>
        <path d="M861.56,513.64c-.07,23.78-28.42,36.49-46.17,20.26-11.7-10.59-11.71-29.93-.01-40.53,17.75-16.25,46.12-3.51,46.18,20.27h0Zm0,0c.14-13.89-12.09-25.41-25.91-24.31-12.65,.71-22.9,11.9-22.73,24.31-.18,12.41,10.07,23.62,22.73,24.33,13.83,1.09,26.05-10.43,25.91-24.33h0Z"/>
      </g>
      <g>
        <circle class="cls-9" cx="673.98" cy="205.52" r="27.92"/>
        <path d="M701.9,205.52c-.08,25.56-30.58,39.17-49.6,21.68-12.48-11.36-12.49-32.01-.01-43.38,19.02-17.51,49.54-3.87,49.62,21.69h0Zm0,0c.15-14.99-13.01-27.43-27.92-26.32-13.73,.69-24.93,12.84-24.74,26.32-.2,13.49,11,25.66,24.74,26.34,14.92,1.1,28.08-11.35,27.92-26.34h0Z"/>
      </g>
      <g>
        <circle class="cls-5" cx="422.59" cy="254.56" r="17.73"/>
        <path d="M440.32,254.56c.15,12.83-12.95,22.62-25.37,18.44-17.62-5.91-17.62-30.97,0-36.89,12.42-4.18,25.53,5.62,25.38,18.45h0Zm0,0c.17-9.39-8.48-17.27-17.73-16.13-8.26,.79-14.63,8.11-14.55,16.13-.09,8.03,6.28,15.36,14.55,16.15,9.26,1.13,17.9-6.76,17.73-16.15h0Z"/>
      </g>
      <g>
        <circle class="cls-5" cx="397.54" cy="375.15" r="13.63"/>
        <path d="M411.17,375.15c.19,9.89-10.02,17.75-19.7,14.65-14.25-4.5-14.26-24.81,0-29.31,9.69-3.11,19.89,4.77,19.71,14.66h0Zm0,0c.16-7.15-6.64-13.17-13.63-12.03-13.86,2.32-13.87,21.77,0,24.08,6.94,1.13,13.78-4.83,13.63-12.05h0Z"/>
      </g>
      <g>
        <circle class="cls-5" cx="242.1" cy="604.99" r="13.63"/>
        <path d="M255.73,604.99c.19,9.89-10.02,17.76-19.7,14.65-14.25-4.5-14.26-24.81,0-29.31,9.69-3.11,19.89,4.77,19.71,14.66h0Zm0,0c.16-7.15-6.64-13.17-13.63-12.03-13.86,2.32-13.87,21.77,0,24.08,6.94,1.13,13.78-4.83,13.63-12.05h0Z"/>
      </g>
      <g>
        <circle class="cls-9" cx="572.12" cy="374.36" r="13.63"/>
        <path d="M585.75,374.36c.19,9.89-10.02,17.75-19.7,14.65-14.25-4.5-14.26-24.81,0-29.31,9.69-3.11,19.89,4.77,19.71,14.66h0Zm0,0c.16-7.15-6.64-13.17-13.63-12.03-13.86,2.32-13.87,21.77,0,24.08,6.94,1.13,13.78-4.83,13.63-12.05h0Z"/>
      </g>
      <g>
        <circle class="cls-5" cx="718.69" cy="608.63" r="13.63"/>
        <path d="M732.32,608.63c.19,9.89-10.02,17.75-19.7,14.65-14.25-4.5-14.26-24.81,0-29.31,9.69-3.11,19.89,4.77,19.71,14.66h0Zm0,0c.16-7.15-6.64-13.17-13.63-12.03-13.86,2.32-13.87,21.77,0,24.08,6.94,1.13,13.78-4.83,13.63-12.05h0Z"/>
      </g>
      <g>
        <circle class="cls-9" cx="226.19" cy="367.93" r="24.11"/>
        <path d="M250.3,367.93c.15,17.37-17.58,30.23-34.19,24.33-22.87-8.2-22.87-40.47,0-48.67,16.61-5.91,34.36,6.98,34.2,24.34h0Zm0,0c-.14-20.78-25.4-30.3-39.22-15.1-7.72,8.34-7.73,21.87-.01,30.22,13.82,15.21,39.09,5.67,39.23-15.11h0Z"/>
      </g>
      <path d="M768.8,778.95c-14.56,2.52-29.2,3.1-43.9,3.18-14.7-.07-29.34-.65-43.9-3.18,14.56-2.53,29.2-3.11,43.9-3.18,14.7,.08,29.34,.66,43.9,3.18h0Z"/>
      <path d="M768.32,755.61c-10.79,2.51-21.68,3.1-32.65,3.18-10.98-.07-21.86-.66-32.65-3.18,10.79-2.53,21.67-3.11,32.65-3.18,10.97,.08,21.86,.67,32.65,3.18h0Z"/>
      <g>
        <path d="M424.75,578.13c20.38,18.3,35.4,44.46,38.51,71.9,3.6,33.11-12.74,62.54-38.51,82.19,9.8-10.81,18.37-22.52,24.4-35.36,19.21-41.07,1.93-85.12-24.4-118.73h0Z"/>
        <path d="M304.63,665.52c21.03-18.42,48.66-29.75,76.66-31.29,28.1-1.5,56.86,7.55,78.69,25.14-12.28-6.46-25.01-11.66-38.19-14.9-40.08-10.33-82.19-.02-117.16,21.06h0Z"/>
      </g>
      <path d="M598.37,833.99c-2.48,9.94-16.27,19.08-24.51,24.54-29.95,18.66-65.76,29.81-101.26,26.61-35.28-3.65-67.8-22.68-93.77-46.09-11.39-10.78-28.89-28.75-29.59-45.22,.46-20.08,37.08-8.8,48.87-6.38,28.46,7,56.25,15.1,84.91,20.26,16.47,2.85,35.15,4.99,51.84,6.94,11.6,1.32,23.24,2.56,34.85,4.22,8.06,1.55,31.01,3.44,28.65,15.12h0Zm-.62-.12c2.03-11.15-20.71-12.37-28.23-13.27-5.8-.52-11.62-.82-17.45-1.07-10.5-.42-24.76-.91-35.06-1.59-23.47-1.36-46.8-5.18-69.59-10.97-17.02-4.14-33.88-9.28-50.76-13.72-10.93-2.7-22.43-6.01-33.59-5.91-5.31,.2-9.68,1.78-9.42,7.61,.71,14.32,16.57,32.77,26.68,42.52,20.84,20.03,47.25,34.67,75.68,40.19,16.89,3.42,34.32,2.97,51.31,.56,22.79-3.49,45.41-9.98,65.71-21.1,8.64-4.96,21.97-13.31,24.72-23.26h0Z"/>
    </g>
    <g>
      <g>
        <path class="cls-2" d="M753.69,545.24c8.17,45.62,9.53,92.12,11,138.34,1.53,47.94,7.7,96.51,1.2,144.31-3.38,24.88-12.5,48.46-29.77,67.03-29.38,31.59-64.79,56.83-101.26,79.53-36.18,22.53-73.54,46.05-114.72,58.18-5.08,1.5-10.21,2.83-15.38,4-11.64,2.63-23.33,4.9-35.29,5.26-43.42,1.32-81.58-21.15-118.05-41.83-28.68-16.26-57.38-32.94-84.21-52.18-60.23-43.19-69.26-110.95-71.67-179.98-.76-21.77-1.12-43.55-1.02-65.34,.1-23.95,.25-47.92,1.7-71.83,1.46-23.92,4.22-47.84,9.69-71.2,.78-3.31,1.46-6.64,2.14-9.97"/>
        <path class="cls-2" d="M753.69,545.24c9.82,53.91,9.53,109.18,12.42,163.73,2.29,50.5,10.78,116.31-12.32,162.5-6.07,12.48-15.07,23.21-24.9,32.9-28.94,29.41-63.04,53.29-97.88,75.09-40.41,25.6-82.71,51.39-130.27,61.2-11.8,2.64-24.1,4.72-36.29,4.32-50.52-.89-94.96-32.45-137.55-56.42-17.72-10.46-35.23-21.36-52.12-33.15-11.36-7.8-22.37-16.37-31.64-26.62-52.74-57.69-47.6-142.82-48.91-215.87,.33-47.85,.07-96.15,9.47-143.26,1.3-6.63,3.03-13.6,4.34-20.08-2.91,13.3-5.94,26.89-7.76,40.33-7.22,54.33-5.83,109.4-4.72,164.08,1.79,61.57,6.65,130.88,53.37,176.36,8.43,8.39,18.05,15.49,27.91,22.08,16.97,11.5,34.53,22.07,52.3,32.29,35.52,19.5,70.38,42.84,110.47,51.44,19.88,4.27,40.12,2.91,59.84-1.51,47.13-9.19,88.72-34.02,129.21-58.96,34.98-21.3,69.08-44.41,98.27-73.27,9.79-9.4,18.77-19.75,24.89-31.95,23.23-45.07,15.69-111.63,13.74-161.47-2.52-54.57-2.11-109.84-11.88-163.76h0Z"/>
      </g>
      <ellipse class="cls-2" cx="592.47" cy="668.38" rx="77.54" ry="110.07"/>
      <ellipse class="cls-2" cx="579.74" cy="665.52" rx="62.14" ry="83.47"/>
      <path class="cls-2" d="M437.9,509.15c-7.52-21.52-45.7-19.08-89.21-3.87-43.51,15.22-69.06,40.11-61.54,61.62s36.06,6.83,79.58-8.39c43.51-15.22,78.69-27.85,71.17-49.37Z"/>
      <path class="cls-2" d="M699.29,554.67c8.44-21.17-21.95-44.39-64.77-61.47-42.82-17.08-78.43-15.06-86.87,6.11-8.44,21.17,22.73,28.82,65.55,45.9,42.82,17.08,77.65,30.63,86.1,9.46Z"/>
      <g>
        <circle class="cls-2" cx="677.57" cy="852.78" r="23.13"/>
        <path class="cls-2" d="M700.7,852.78c.19,16.62-16.92,29.07-32.83,23.42-22.05-7.83-22.06-39.03,0-46.85,15.91-5.66,33.03,6.81,32.84,23.44h0Zm0,0c-.16-19.93-24.3-28.98-37.53-14.4-7.34,7.98-7.35,20.84-.01,28.82,13.24,14.59,37.39,5.51,37.54-14.42h0Z"/>
      </g>
      <g>
        <circle class="cls-2" cx="730.16" cy="823.43" r="23.13"/>
        <path class="cls-2" d="M753.29,823.43c.19,16.62-16.92,29.07-32.83,23.42-22.05-7.83-22.06-39.03,0-46.85,15.91-5.66,33.03,6.81,32.84,23.44h0Zm0,0c-.16-19.93-24.3-28.98-37.53-14.4-7.34,7.98-7.35,20.84-.01,28.82,13.24,14.59,37.39,5.51,37.54-14.42h0Z"/>
      </g>
      <g>
        <line class="cls-2" x1="811.81" y1="519.76" x2="753" y2="543.98"/>
        <path class="cls-2" d="M811.81,519.76c-8.75,6.32-18.34,10.9-28.2,15.05-9.92,4.01-19.95,7.5-30.62,9.16,8.75-6.33,18.33-10.92,28.2-15.05,9.92-4,19.95-7.49,30.62-9.16h0Z"/>
      </g>
      <g>
        <polyline class="cls-2" points="864.4 441.49 823.43 466.56 747.61 466.56 747.61 512.42"/>
        <path class="cls-2" d="M864.4,441.49c-12.81,9.62-26.73,18.89-40.14,27.72-25.25,.66-51.46,.73-76.65-.05,0,0,2.61-2.61,2.61-2.61-.48,14.88-1.2,31.08-2.61,45.86-1.43-14.76-2.1-30.99-2.61-45.86,0,0-.09-2.52-.09-2.52l2.69-.08c24.89-.77,50.87-.72,75.82-.07,0,0-1.39,.39-1.39,.39,13.77-7.82,28.17-15.85,42.36-22.79h0Z"/>
      </g>
      <g>
        <line class="cls-2" x1="819.15" y1="402.49" x2="716.42" y2="462.41"/>
        <path class="cls-2" d="M819.15,402.49c-15.8,12.14-32.64,22.63-49.76,32.71-17.2,9.95-34.61,19.44-52.97,27.21,15.79-12.15,32.63-22.64,49.76-32.71,17.21-9.94,34.62-19.43,52.97-27.21h0Z"/>
      </g>
      <g>
        <polyline class="cls-2" points="806 333.26 767.79 389.52 674.84 435.99"/>
        <path class="cls-2" d="M806,333.26c-10.94,19.79-23.69,39.64-36.09,58.61-11.38,5.9-24.03,12.17-35.63,17.78-19.46,9.27-39.38,18.51-59.44,26.34,21.93-13.56,45.32-25.93,68.3-37.68,7.72-3.92,15.48-7.76,23.28-11.53l-1.16,1.02c12.92-18.32,26.54-37.25,40.75-54.53h0Z"/>
      </g>
      <g>
        <polyline class="cls-2" points="768.81 276.4 744.55 352.83 674.84 362 651 429.26"/>
        <path class="cls-2" d="M768.81,276.4c-6.28,26.01-13.73,51.71-21.43,77.33,0,0-.52,1.75-.52,1.75-17.39,2.61-36.72,5.14-54.18,7.29-5.81,.73-11.64,1.36-17.46,2.04l2.29-1.86c-1.52,4.17-4.72,12.55-6.33,16.69-6.36,16.54-13.08,33.41-20.18,49.63,4.69-17.06,10.12-34.41,15.59-51.26,1.63-5.03,4.42-13.56,6.13-18.55,12.18-1.81,24.36-3.59,36.56-5.19,10.24-1.33,24.75-3.25,34.88-4.37,0,0-2.43,2.04-2.43,2.04,8.48-25.37,17.21-50.66,27.07-75.54h0Z"/>
      </g>
      <g>
        <line class="cls-2" x1="661.39" y1="313.08" x2="608.19" y2="429.26"/>
        <path class="cls-2" d="M661.39,313.08c-6.55,20.37-14.89,39.98-23.7,59.42-8.95,19.38-18.34,38.5-29.49,56.76,6.54-20.37,14.88-39.98,23.7-59.42,8.96-19.37,18.35-38.5,29.49-56.76h0Z"/>
      </g>
      <path class="cls-2" d="M572.12,387.81c4.3,13.86,4.33,33.14,0,47-4.33-13.86-4.3-33.13,0-47h0Z"/>
      <g>
        <polyline class="cls-2" points="651 224.29 614.31 256.09 623.48 282.99 588.63 314.18 561.11 306.84 524.42 349.65"/>
        <path class="cls-2" d="M651,224.29c-11.41,11.52-23.21,22.62-35.13,33.59,0,0,.69-2.56,.69-2.56,3.22,8.4,7.3,19.96,10.4,28.51-11.76,10.91-24.23,22.06-36.27,32.65,0,0-1.27,1.11-1.27,1.11l-1.59-.43c-9.15-2.54-18.28-5.14-27.39-7.8,0,0,2.65-.82,2.65-.82-12.05,13.32-25.99,28.44-38.67,41.11,10.56-14.46,23.4-30.56,34.71-44.5,0,0,.98-1.21,.98-1.21,9.79,2.33,19.56,4.78,29.31,7.26,0,0-2.86,.68-2.86,.68,11.33-10.32,23.34-21.05,34.92-31.11,0,0-.83,3.19-.83,3.19-2.84-8.6-6.44-20.14-9.09-28.69,0,0,1.19-.98,1.19-.98,12.55-10.25,25.22-20.35,38.24-30h0Z"/>
      </g>
      <g>
        <polyline class="cls-2" points="577.01 147.25 572.12 217.57 524.42 242.64 521.36 374.1 461.44 396.12"/>
        <path class="cls-2" d="M577.01,147.25c-.47,23.51-1.44,47-2.6,70.48,0,0-.07,1.24-.07,1.24-8.27,4.51-16.49,9.12-24.79,13.57,0,0-23.71,12.8-23.71,12.8l1.63-2.63-.64,32.87c-.76,32.4-1.9,67.91-3.34,100.11-20.38,6.89-41.54,14.09-62.05,20.43,19.29-8.21,39.62-16.35,59.17-24.06,0,0-1.43,2-1.43,2,.03-31.63,.59-66.81,1.31-98.62,0,0,.89-32.86,.89-32.86l.05-1.82,1.58-.81,23.98-12.27c7.99-4.11,16.04-8.08,24.06-12.13,0,0-1.22,1.88-1.22,1.88,2.11-23.41,4.39-46.81,7.19-70.16h0Z"/>
      </g>
      <g>
        <polyline class="cls-2" points="424.75 273.21 424.75 401.01 481.65 401.01 480.88 468.88"/>
        <path class="cls-2" d="M424.75,273.21c2.55,41.62,3.06,86,3.18,127.8,0,0-3.18-3.18-3.18-3.18,0,0,28.45,.14,28.45,.14,9.46,.14,21.78,.25,31.14,.52-.51,16.13-1.4,37.31-2.33,53.44-.24,4.19-.81,12.76-1.14,16.96-.24-4.26-.59-12.72-.75-16.98-.53-15.13-.95-35.79-1.07-50.92,0,0,2.6,2.63,2.6,2.63-17.51,.42-42.42,.52-60.1,.6,.14-42.91,.56-88.24,3.2-130.99h0Z"/>
      </g>
      <path class="cls-2" d="M398.46,388.91c4.3,14.96,4.33,35.79,0,50.75-4.33-14.96-4.3-35.78,0-50.75h0Z"/>
      <g>
        <polyline class="cls-2" points="481.65 147.25 477.34 319.07 424.75 339.25"/>
        <path class="cls-2" d="M481.65,147.25c1.84,46.19,1.05,93.51-.45,139.68-.46,11.01-.86,22.97-1.49,33.92-13.29,4.73-28.07,9.82-41.5,14.17-4.47,1.44-8.95,2.88-13.46,4.23,4.26-2.01,8.54-3.94,12.83-5.86,12.37-5.51,26.34-11.47,38.87-16.62,0,0-1.58,2.24-1.58,2.24-.05-10.34,.13-21.83,.22-32.23,.81-46.2,2.41-93.49,6.56-139.53h0Z"/>
      </g>
      <g>
        <polyline class="cls-2" points="384.39 188.34 391.12 267.22 362.38 292.91 380.11 435.99"/>
        <path class="cls-2" d="M384.39,188.34c3.81,26.13,6.75,52.38,9.46,78.65,0,0,.13,1.33,.13,1.33l-1.03,.95c-8.2,7.59-20.27,18.6-28.49,25.96,0,0,1.02-2.71,1.02-2.71,6.01,47.4,11.49,95.77,14.63,143.47-8.6-47.02-15.09-95.26-20.83-142.7,0,0-.19-1.64-.19-1.64l1.21-1.07c8.18-7.33,20.6-18.11,28.99-25.4,0,0-.91,2.28-.91,2.28-1.78-26.35-3.32-52.71-3.99-79.11h0Z"/>
      </g>
      <g>
        <polyline class="cls-2" points="301.23 166.94 321.41 236.04 290.84 264.17 303.68 327.76 346.48 342.44 351.99 431.63"/>
        <path class="cls-2" d="M301.23,166.94c7.89,22.68,15.26,45.53,22.44,68.44,0,0,.42,1.36,.42,1.36,0,0-1.09,1.04-1.09,1.04-8.68,8.25-21.26,20.29-30.16,28.57,0,0,.9-2.77,.9-2.77,3.24,15.25,6.75,32.37,9.83,47.65,0,0,3.15,15.91,3.15,15.91,0,0-2.04-2.32-2.04-2.32,0,0,10.69,3.71,10.69,3.71,8.18,2.92,25.38,8.97,33.72,11.97,0,0,.08,1.76,.08,1.76,1.29,29.29,2.52,60.1,2.82,89.36-3.29-29.07-5.88-59.8-8.19-89.03,0,0,1.81,2.38,1.81,2.38-7.58-2.65-24.9-8.09-32.22-10.66-1.1-.37-11.63-3.94-12.39-4.19,0,0-.36-1.75-.36-1.75-3.09-14.79-6.7-32.87-9.61-47.7-1.17-5.85-2.32-11.73-3.41-17.6,0,0,1.21-1.09,1.21-1.09,9.13-8.1,21.89-19.78,30.98-27.68,0,0-.67,2.39-.67,2.39-6.28-23.17-12.36-46.4-17.92-69.76h0Z"/>
      </g>
      <g>
        <line class="cls-2" x1="258.43" y1="293.34" x2="293.9" y2="439.18"/>
        <path class="cls-2" d="M258.43,293.34c8.35,23.67,14.81,47.85,20.83,72.17,5.84,24.36,11.2,48.81,14.64,73.67-8.36-23.66-14.82-47.84-20.83-72.17-5.82-24.37-11.19-48.81-14.64-73.67h0Z"/>
      </g>
      <g>
        <polyline class="cls-2" points="197.28 239.22 218.07 324.83 266.09 324.83"/>
        <path class="cls-2" d="M197.28,239.22c10,27.68,17.25,56.22,23.66,84.91,0,0-2.87-2.26-2.87-2.26,12.02,.28,24.03,.8,36.01,1.78,4,.31,8,.7,12,1.18-7.99,.95-15.99,1.54-24.01,2.01-8.74,.51-17.5,.82-26.26,.99-2.13-7.85-4.13-15.75-6.03-23.65-5.1-21.46-9.72-43.04-12.51-64.95h0Z"/>
      </g>
      <g>
        <line class="cls-2" x1="238.99" y1="388.91" x2="261.61" y2="451.89"/>
        <path class="cls-2" d="M238.99,388.91c6.11,9.56,10.43,19.86,14.31,30.41,3.74,10.61,6.96,21.3,8.32,32.57-6.12-9.55-10.44-19.86-14.31-30.41-3.72-10.61-6.94-21.31-8.32-32.57h0Z"/>
      </g>
      <g>
        <polyline class="cls-2" points="130.02 338.89 152.65 411.31 222.35 432.45 231.69 483.81"/>
        <path class="cls-2" d="M130.02,338.89c6.83,16.94,13.55,36.14,19.52,53.52,0,0,5.98,18,5.98,18l-2-1.99c5.83,1.69,11.66,3.39,17.47,5.14,17.46,5.27,36.46,11.16,53.65,16.98,2.58,16.97,5.36,36.22,7.05,53.27-4.26-16.03-8.41-34.63-11.84-50.91,0,0,1.76,1.98,1.76,1.98-16.92-4.6-35.6-10.11-52.46-15.26-6.33-1.93-12.65-3.92-18.95-5.92,0,0-.44-1.49-.44-1.49,0,0-5.33-18.21-5.33-18.21-4.95-17.7-10.41-37.26-14.42-55.11h0Z"/>
      </g>
      <g>
        <polyline class="cls-2" points="101.41 447 142.38 480.63 212.09 483.07 212.09 527.71"/>
        <path class="cls-2" d="M101.41,447c14.61,9.87,28.85,20.62,42.74,31.47,0,0-1.68-.63-1.68-.63,17.44,.18,34.87,.72,52.29,1.63,6.65,.39,13.34,.71,19.99,1.21,0,0-.09,2.4-.09,2.4-.49,14.23-1.2,30.49-2.58,44.64-1.36-14.13-2.12-30.41-2.58-44.64,0,0,2.49,2.58,2.49,2.58-5.82,0-11.63-.14-17.44-.2-17.44-.31-34.86-1-52.27-2.04,0,0-.99-.05-.99-.05,0,0-.68-.58-.68-.58-13.35-11.51-26.67-23.39-39.19-35.79h0Z"/>
      </g>
      <g>
        <line class="cls-2" x1="145.56" y1="564.25" x2="207.93" y2="548.99"/>
        <path class="cls-2" d="M145.56,564.25c9.7-4.96,19.96-8.08,30.43-10.72,10.5-2.5,21.04-4.47,31.94-4.54-9.7,4.97-19.96,8.09-30.43,10.72-10.51,2.49-21.04,4.46-31.94,4.54h0Z"/>
      </g>
      <g>
        <line class="cls-2" x1="228.47" y1="611.36" x2="196.49" y2="625.9"/>
        <path class="cls-2" d="M228.47,611.36c-7.59,8.17-20.82,14.22-31.97,14.54,7.57-8.19,20.83-14.19,31.97-14.54h0Z"/>
      </g>
      <g>
        <line class="cls-2" x1="732.32" y1="613.8" x2="762.25" y2="622.26"/>
        <path class="cls-2" d="M732.32,613.8c9.91-1.66,22.36,1.82,29.93,8.46-9.92,1.69-22.34-1.85-29.93-8.46h0Z"/>
      </g>
      <g>
        <circle class="cls-2" cx="117.38" cy="571.69" r="28.66"/>
        <path class="cls-2" d="M146.05,571.69c-.08,26.22-31.38,40.15-50.87,22.21-12.77-11.64-12.78-32.78-.01-44.42,19.49-17.97,50.8-4.01,50.88,22.22h0Zm0,0c.16-15.39-13.34-28.17-28.66-27.06-14.13,.68-25.68,13.18-25.48,27.06-.21,13.89,11.34,26.4,25.48,27.08,15.32,1.1,28.82-11.69,28.66-27.08h0Z"/>
      </g>
      <g>
        <circle class="cls-2" cx="80.78" cy="435.99" r="23.22"/>
        <path class="cls-2" d="M103.99,435.99c.19,16.68-16.99,29.18-32.95,23.5-22.12-7.86-22.13-39.16,0-47.02,15.97-5.68,33.15,6.83,32.96,23.52h0Zm0,0c-.16-20-24.4-29.09-37.68-14.47-7.38,8.01-7.38,20.93-.01,28.94,13.29,14.65,37.54,5.53,37.69-14.48h0Z"/>
      </g>
      <g>
        <circle class="cls-2" cx="118.42" cy="317.45" r="24.11"/>
        <path class="cls-2" d="M142.53,317.45c.15,17.37-17.58,30.23-34.19,24.33-22.87-8.2-22.87-40.47,0-48.67,16.61-5.91,34.36,6.98,34.2,24.34h0Zm0,0c-.14-20.78-25.4-30.3-39.22-15.1-7.72,8.34-7.73,21.87-.01,30.22,13.82,15.21,39.09,5.67,39.23-15.11h0Z"/>
      </g>
      <g>
        <circle class="cls-2" cx="192.25" cy="215.64" r="24.11"/>
        <path class="cls-2" d="M216.37,215.64c.15,17.37-17.58,30.23-34.19,24.33-22.87-8.2-22.87-40.47,0-48.67,16.61-5.91,34.36,6.98,34.2,24.34h0Zm0,0c-.14-20.78-25.4-30.3-39.22-15.1-7.72,8.34-7.73,21.87-.01,30.22,13.82,15.21,39.09,5.67,39.23-15.11h0Z"/>
      </g>
      <g>
        <circle class="cls-2" cx="292.34" cy="139.71" r="27.24"/>
        <path class="cls-2" d="M319.58,139.71c-.08,24.95-29.84,38.25-48.43,21.2-12.22-11.1-12.23-31.3-.01-42.4,18.59-17.08,48.37-3.75,48.44,21.21h0Zm0,0c.15-14.61-12.69-26.74-27.24-25.63-13.36,.7-24.23,12.52-24.05,25.63-.19,13.12,10.68,24.96,24.05,25.65,14.55,1.1,27.39-11.04,27.23-25.65h0Z"/>
      </g>
      <g>
        <circle class="cls-2" cx="480.34" cy="106.06" r="40.01"/>
        <path class="cls-2" d="M520.35,106.06c.37,21.68-18.08,41.08-40.01,41.6-16.77,.87-33.3-9.56-39.8-25.11-4.5-10.38-4.51-22.6,0-32.98,6.49-15.56,23.03-26,39.81-25.12,21.94,.53,40.39,19.93,40.01,41.61h0Zm0,0c.15-21.64-18.43-39.52-40.01-38.41-20.22,.57-37.16,18.44-36.83,38.41-.34,19.98,16.59,37.87,36.83,38.43,21.59,1.1,40.16-16.79,40.01-38.43h0Z"/>
      </g>
      <g>
        <circle class="cls-2" cx="251.58" cy="273.44" r="19.9"/>
        <path class="cls-2" d="M271.48,273.44c.17,14.35-14.54,25.2-28.36,20.43-19.39-6.7-19.42-34.16,0-40.88,13.82-4.77,28.54,6.1,28.37,20.45h0Zm0,0c.16-10.59-9.43-19.42-19.9-18.3-9.42,.77-16.82,9.11-16.71,18.3-.11,9.19,7.28,17.55,16.71,18.31,10.47,1.12,20.05-7.72,19.9-18.31h0Z"/>
      </g>
      <g>
        <circle class="cls-2" cx="382.28" cy="168.45" r="19.9"/>
        <path class="cls-2" d="M402.17,168.45c.17,14.35-14.55,25.2-28.36,20.43-19.39-6.7-19.42-34.16,0-40.88,13.82-4.77,28.54,6.1,28.37,20.45h0Zm0,0c.16-10.59-9.43-19.42-19.9-18.3-9.42,.77-16.82,9.11-16.71,18.3-.11,9.19,7.28,17.55,16.71,18.31,10.47,1.12,20.05-7.72,19.9-18.31h0Z"/>
      </g>
      <g>
        <circle class="cls-2" cx="579.74" cy="127.35" r="19.9"/>
        <path class="cls-2" d="M599.63,127.35c.17,14.35-14.54,25.2-28.36,20.43-19.39-6.7-19.42-34.16,0-40.88,13.82-4.77,28.54,6.1,28.37,20.45h0Zm0,0c.16-10.59-9.43-19.42-19.9-18.3-9.42,.77-16.82,9.11-16.71,18.3-.12,9.19,7.28,17.55,16.71,18.31,10.47,1.12,20.05-7.72,19.9-18.31h0Z"/>
      </g>
      <g>
        <circle class="cls-2" cx="671.46" cy="290.82" r="22.19"/>
        <path class="cls-2" d="M693.65,290.81c.19,15.96-16.23,27.95-31.53,22.55-21.28-7.5-21.29-37.62,0-45.12,15.31-5.4,31.73,6.61,31.54,22.57h0Zm0,0c-.15-19.09-23.29-27.73-35.93-13.74-6.98,7.63-6.99,19.86-.01,27.49,12.64,14.01,35.79,5.34,35.94-13.75h0Z"/>
      </g>
      <g>
        <circle class="cls-2" cx="777.85" cy="256.42" r="22.19"/>
        <path class="cls-2" d="M800.04,256.42c.19,15.96-16.23,27.95-31.53,22.55-21.28-7.5-21.29-37.62,0-45.12,15.31-5.4,31.73,6.61,31.54,22.57h0Zm0,0c-.15-19.09-23.29-27.73-35.93-13.74-6.98,7.63-6.99,19.86-.01,27.49,12.64,14.01,35.79,5.34,35.94-13.75h0Z"/>
      </g>
      <g>
        <circle class="cls-2" cx="816.62" cy="316.31" r="19.66"/>
        <path class="cls-2" d="M836.27,316.3c.17,14.18-14.37,24.92-28.03,20.21-19.19-6.61-19.23-33.8,0-40.44,13.67-4.71,28.21,6.04,28.04,20.23h0Zm0,0c.15-10.46-9.32-19.18-19.66-18.05-9.29,.78-16.57,9-16.47,18.05-.11,9.06,7.17,17.3,16.47,18.07,10.34,1.12,19.81-7.61,19.66-18.07h0Z"/>
      </g>
      <g>
        <circle class="cls-2" cx="834.08" cy="394.1" r="17.46"/>
        <path class="cls-2" d="M851.55,394.1c.15,12.64-12.76,22.29-25,18.19-17.4-5.82-17.4-30.57,0-36.39,12.25-4.11,25.16,5.56,25.01,18.2h0Zm0,0c.17-9.24-8.36-17-17.46-15.86-8.11,.8-14.36,7.98-14.28,15.86-.09,7.88,6.16,15.09,14.28,15.88,9.11,1.13,17.63-6.64,17.46-15.88h0Z"/>
      </g>
      <g>
        <circle class="cls-2" cx="884" cy="429.84" r="22.44"/>
        <path class="cls-2" d="M906.44,429.84c.19,16.14-16.41,28.25-31.88,22.78-21.49-7.59-21.49-37.99,0-45.58,15.47-5.47,32.07,6.66,31.88,22.8h0Zm0,0c-.16-19.32-23.56-28.06-36.36-13.92-7.08,7.72-7.08,20.12-.01,27.85,12.8,14.16,36.21,5.39,36.37-13.93h0Z"/>
      </g>
      <g>
        <circle class="cls-2" cx="835.65" cy="513.64" r="25.91"/>
        <path class="cls-2" d="M861.56,513.64c-.07,23.78-28.42,36.49-46.17,20.26-11.7-10.59-11.71-29.93-.01-40.53,17.75-16.25,46.12-3.51,46.18,20.27h0Zm0,0c.14-13.89-12.09-25.41-25.91-24.31-12.65,.71-22.9,11.9-22.73,24.31-.18,12.41,10.07,23.62,22.73,24.33,13.83,1.09,26.05-10.43,25.91-24.33h0Z"/>
      </g>
      <g>
        <circle class="cls-2" cx="673.98" cy="205.52" r="27.92"/>
        <path class="cls-2" d="M701.9,205.52c-.08,25.56-30.58,39.17-49.6,21.68-12.48-11.36-12.49-32.01-.01-43.38,19.02-17.51,49.54-3.87,49.62,21.69h0Zm0,0c.15-14.99-13.01-27.43-27.92-26.32-13.73,.69-24.93,12.84-24.74,26.32-.2,13.49,11,25.66,24.74,26.34,14.92,1.1,28.08-11.35,27.92-26.34h0Z"/>
      </g>
      <g>
        <circle class="cls-2" cx="422.59" cy="254.56" r="17.73"/>
        <path class="cls-2" d="M440.32,254.56c.15,12.83-12.95,22.62-25.37,18.44-17.62-5.91-17.62-30.97,0-36.89,12.42-4.18,25.53,5.62,25.38,18.45h0Zm0,0c.17-9.39-8.48-17.27-17.73-16.13-8.26,.79-14.63,8.11-14.55,16.13-.09,8.03,6.28,15.36,14.55,16.15,9.26,1.13,17.9-6.76,17.73-16.15h0Z"/>
      </g>
      <g>
        <circle class="cls-2" cx="397.54" cy="375.15" r="13.63"/>
        <path class="cls-2" d="M411.17,375.15c.19,9.89-10.02,17.75-19.7,14.65-14.25-4.5-14.26-24.81,0-29.31,9.69-3.11,19.89,4.77,19.71,14.66h0Zm0,0c.16-7.15-6.64-13.17-13.63-12.03-13.86,2.32-13.87,21.77,0,24.08,6.94,1.13,13.78-4.83,13.63-12.05h0Z"/>
      </g>
      <g>
        <circle class="cls-2" cx="242.1" cy="604.99" r="13.63"/>
        <path class="cls-2" d="M255.73,604.99c.19,9.89-10.02,17.76-19.7,14.65-14.25-4.5-14.26-24.81,0-29.31,9.69-3.11,19.89,4.77,19.71,14.66h0Zm0,0c.16-7.15-6.64-13.17-13.63-12.03-13.86,2.32-13.87,21.77,0,24.08,6.94,1.13,13.78-4.83,13.63-12.05h0Z"/>
      </g>
      <g>
        <circle class="cls-2" cx="572.12" cy="374.36" r="13.63"/>
        <path class="cls-2" d="M585.75,374.36c.19,9.89-10.02,17.75-19.7,14.65-14.25-4.5-14.26-24.81,0-29.31,9.69-3.11,19.89,4.77,19.71,14.66h0Zm0,0c.16-7.15-6.64-13.17-13.63-12.03-13.86,2.32-13.87,21.77,0,24.08,6.94,1.13,13.78-4.83,13.63-12.05h0Z"/>
      </g>
      <g>
        <circle class="cls-2" cx="718.69" cy="608.63" r="13.63"/>
        <path class="cls-2" d="M732.32,608.63c.19,9.89-10.02,17.75-19.7,14.65-14.25-4.5-14.26-24.81,0-29.31,9.69-3.11,19.89,4.77,19.71,14.66h0Zm0,0c.16-7.15-6.64-13.17-13.63-12.03-13.86,2.32-13.87,21.77,0,24.08,6.94,1.13,13.78-4.83,13.63-12.05h0Z"/>
      </g>
      <g>
        <circle class="cls-2" cx="226.19" cy="367.93" r="24.11"/>
        <path class="cls-2" d="M250.3,367.93c.15,17.37-17.58,30.23-34.19,24.33-22.87-8.2-22.87-40.47,0-48.67,16.61-5.91,34.36,6.98,34.2,24.34h0Zm0,0c-.14-20.78-25.4-30.3-39.22-15.1-7.72,8.34-7.73,21.87-.01,30.22,13.82,15.21,39.09,5.67,39.23-15.11h0Z"/>
      </g>
      <path class="cls-2" d="M768.8,778.95c-14.56,2.52-29.2,3.1-43.9,3.18-14.7-.07-29.34-.65-43.9-3.18,14.56-2.53,29.2-3.11,43.9-3.18,14.7,.08,29.34,.66,43.9,3.18h0Z"/>
      <path class="cls-2" d="M768.32,755.61c-10.79,2.51-21.68,3.1-32.65,3.18-10.98-.07-21.86-.66-32.65-3.18,10.79-2.53,21.67-3.11,32.65-3.18,10.97,.08,21.86,.67,32.65,3.18h0Z"/>
      <g>
        <g>
          <path class="cls-2" d="M424.75,578.13s80.64,80.13,0,154.09"/>
          <path class="cls-2" d="M424.75,578.13c20.38,18.3,35.4,44.46,38.51,71.9,3.6,33.11-12.74,62.54-38.51,82.19,9.8-10.81,18.37-22.52,24.4-35.36,19.21-41.07,1.93-85.12-24.4-118.73h0Z"/>
        </g>
        <g>
          <path class="cls-2" d="M304.63,665.52c10.76-7.84,52.02-35.87,105.43-26.33,21.73,3.89,38.66,12.78,49.92,20.17"/>
          <path class="cls-2" d="M304.63,665.52c21.03-18.42,48.66-29.75,76.66-31.29,28.1-1.5,56.86,7.55,78.69,25.14-12.28-6.46-25.01-11.66-38.19-14.9-40.08-10.33-82.19-.02-117.16,21.06h0Z"/>
        </g>
      </g>
      <g>
        <path class="cls-2" d="M598.06,833.93c-3.9,19.72-77.34,58.91-139.27,46.66-61.93-12.25-111.04-68.74-107.14-88.46,3.9-19.72,59.33,4.8,121.26,17.05,61.93,12.25,129.05,5.03,125.15,24.75Z"/>
        <path class="cls-2" d="M598.37,833.99c-2.48,9.94-16.27,19.08-24.51,24.54-29.95,18.66-65.76,29.81-101.26,26.61-35.28-3.65-67.8-22.68-93.77-46.09-11.39-10.78-28.89-28.75-29.59-45.22,.46-20.08,37.08-8.8,48.87-6.38,28.46,7,56.25,15.1,84.91,20.26,16.47,2.85,35.15,4.99,51.84,6.94,11.6,1.32,23.24,2.56,34.85,4.22,8.06,1.55,31.01,3.44,28.65,15.12h0Zm-.62-.12c2.03-11.15-20.71-12.37-28.23-13.27-5.8-.52-11.62-.82-17.45-1.07-10.5-.42-24.76-.91-35.06-1.59-23.47-1.36-46.8-5.18-69.59-10.97-17.02-4.14-33.88-9.28-50.76-13.72-10.93-2.7-22.43-6.01-33.59-5.91-5.31,.2-9.68,1.78-9.42,7.61,.71,14.32,16.57,32.77,26.68,42.52,20.84,20.03,47.25,34.67,75.68,40.19,16.89,3.42,34.32,2.97,51.31,.56,22.79-3.49,45.41-9.98,65.71-21.1,8.64-4.96,21.97-13.31,24.72-23.26h0Z"/>
      </g>
    </g>
    <g>
      <g>
        <path class="cls-8" d="M753.69,545.24c8.17,45.62,9.53,92.12,11,138.34,1.53,47.94,7.7,96.51,1.2,144.31-3.38,24.88-12.5,48.46-29.77,67.03-29.38,31.59-64.79,56.83-101.26,79.53-36.18,22.53-73.54,46.05-114.72,58.18-5.08,1.5-10.21,2.83-15.38,4-11.64,2.63-23.33,4.9-35.29,5.26-43.42,1.32-81.58-21.15-118.05-41.83-28.68-16.26-57.38-32.94-84.21-52.18-60.23-43.19-69.26-110.95-71.67-179.98-.76-21.77-1.12-43.55-1.02-65.34,.1-23.95,.25-47.92,1.7-71.83,1.46-23.92,4.22-47.84,9.69-71.2,.78-3.31,1.46-6.64,2.14-9.97"/>
        <path class="cls-8" d="M753.69,545.24c9.82,53.91,9.53,109.18,12.42,163.73,2.29,50.5,10.78,116.31-12.32,162.5-6.07,12.48-15.07,23.21-24.9,32.9-28.94,29.41-63.04,53.29-97.88,75.09-40.41,25.6-82.71,51.39-130.27,61.2-11.8,2.64-24.1,4.72-36.29,4.32-50.52-.89-94.96-32.45-137.55-56.42-17.72-10.46-35.23-21.36-52.12-33.15-11.36-7.8-22.37-16.37-31.64-26.62-52.74-57.69-47.6-142.82-48.91-215.87,.33-47.85,.07-96.15,9.47-143.26,1.3-6.63,3.03-13.6,4.34-20.08-2.91,13.3-5.94,26.89-7.76,40.33-7.22,54.33-5.83,109.4-4.72,164.08,1.79,61.57,6.65,130.88,53.37,176.36,8.43,8.39,18.05,15.49,27.91,22.08,16.97,11.5,34.53,22.07,52.3,32.29,35.52,19.5,70.38,42.84,110.47,51.44,19.88,4.27,40.12,2.91,59.84-1.51,47.13-9.19,88.72-34.02,129.21-58.96,34.98-21.3,69.08-44.41,98.27-73.27,9.79-9.4,18.77-19.75,24.89-31.95,23.23-45.07,15.69-111.63,13.74-161.47-2.52-54.57-2.11-109.84-11.88-163.76h0Z"/>
      </g>
      <ellipse class="cls-8" cx="592.47" cy="668.38" rx="77.54" ry="110.07"/>
      <ellipse class="cls-8" cx="579.74" cy="665.52" rx="62.14" ry="83.47"/>
      <path class="cls-8" d="M437.9,509.15c-7.52-21.52-45.7-19.08-89.21-3.87-43.51,15.22-69.06,40.11-61.54,61.62s36.06,6.83,79.58-8.39c43.51-15.22,78.69-27.85,71.17-49.37Z"/>
      <path class="cls-8" d="M699.29,554.67c8.44-21.17-21.95-44.39-64.77-61.47-42.82-17.08-78.43-15.06-86.87,6.11-8.44,21.17,22.73,28.82,65.55,45.9,42.82,17.08,77.65,30.63,86.1,9.46Z"/>
      <g>
        <circle class="cls-8" cx="677.57" cy="852.78" r="23.13"/>
        <path class="cls-8" d="M700.7,852.78c.19,16.62-16.92,29.07-32.83,23.42-22.05-7.83-22.06-39.03,0-46.85,15.91-5.66,33.03,6.81,32.84,23.44h0Zm0,0c-.16-19.93-24.3-28.98-37.53-14.4-7.34,7.98-7.35,20.84-.01,28.82,13.24,14.59,37.39,5.51,37.54-14.42h0Z"/>
      </g>
      <g>
        <circle class="cls-8" cx="730.16" cy="823.43" r="23.13"/>
        <path class="cls-8" d="M753.29,823.43c.19,16.62-16.92,29.07-32.83,23.42-22.05-7.83-22.06-39.03,0-46.85,15.91-5.66,33.03,6.81,32.84,23.44h0Zm0,0c-.16-19.93-24.3-28.98-37.53-14.4-7.34,7.98-7.35,20.84-.01,28.82,13.24,14.59,37.39,5.51,37.54-14.42h0Z"/>
      </g>
      <g>
        <line class="cls-8" x1="811.81" y1="519.76" x2="753" y2="543.98"/>
        <path class="cls-8" d="M811.81,519.76c-8.75,6.32-18.34,10.9-28.2,15.05-9.92,4.01-19.95,7.5-30.62,9.16,8.75-6.33,18.33-10.92,28.2-15.05,9.92-4,19.95-7.49,30.62-9.16h0Z"/>
      </g>
      <g>
        <polyline class="cls-8" points="864.4 441.49 823.43 466.56 747.61 466.56 747.61 512.42"/>
        <path class="cls-8" d="M864.4,441.49c-12.81,9.62-26.73,18.89-40.14,27.72-25.25,.66-51.46,.73-76.65-.05,0,0,2.61-2.61,2.61-2.61-.48,14.88-1.2,31.08-2.61,45.86-1.43-14.76-2.1-30.99-2.61-45.86,0,0-.09-2.52-.09-2.52l2.69-.08c24.89-.77,50.87-.72,75.82-.07,0,0-1.39,.39-1.39,.39,13.77-7.82,28.17-15.85,42.36-22.79h0Z"/>
      </g>
      <g>
        <line class="cls-8" x1="819.15" y1="402.49" x2="716.42" y2="462.41"/>
        <path class="cls-8" d="M819.15,402.49c-15.8,12.14-32.64,22.63-49.76,32.71-17.2,9.95-34.61,19.44-52.97,27.21,15.79-12.15,32.63-22.64,49.76-32.71,17.21-9.94,34.62-19.43,52.97-27.21h0Z"/>
      </g>
      <g>
        <polyline class="cls-8" points="806 333.26 767.79 389.52 674.84 435.99"/>
        <path class="cls-8" d="M806,333.26c-10.94,19.79-23.69,39.64-36.09,58.61-11.38,5.9-24.03,12.17-35.63,17.78-19.46,9.27-39.38,18.51-59.44,26.34,21.93-13.56,45.32-25.93,68.3-37.68,7.72-3.92,15.48-7.76,23.28-11.53l-1.16,1.02c12.92-18.32,26.54-37.25,40.75-54.53h0Z"/>
      </g>
      <g>
        <polyline class="cls-8" points="768.81 276.4 744.55 352.83 674.84 362 651 429.26"/>
        <path class="cls-8" d="M768.81,276.4c-6.28,26.01-13.73,51.71-21.43,77.33,0,0-.52,1.75-.52,1.75-17.39,2.61-36.72,5.14-54.18,7.29-5.81,.73-11.64,1.36-17.46,2.04l2.29-1.86c-1.52,4.17-4.72,12.55-6.33,16.69-6.36,16.54-13.08,33.41-20.18,49.63,4.69-17.06,10.12-34.41,15.59-51.26,1.63-5.03,4.42-13.56,6.13-18.55,12.18-1.81,24.36-3.59,36.56-5.19,10.24-1.33,24.75-3.25,34.88-4.37,0,0-2.43,2.04-2.43,2.04,8.48-25.37,17.21-50.66,27.07-75.54h0Z"/>
      </g>
      <g>
        <line class="cls-8" x1="661.39" y1="313.08" x2="608.19" y2="429.26"/>
        <path class="cls-8" d="M661.39,313.08c-6.55,20.37-14.89,39.98-23.7,59.42-8.95,19.38-18.34,38.5-29.49,56.76,6.54-20.37,14.88-39.98,23.7-59.42,8.96-19.37,18.35-38.5,29.49-56.76h0Z"/>
      </g>
      <g>
        <line class="cls-8" x1="572.12" y1="387.81" x2="572.12" y2="434.81"/>
        <path class="cls-8" d="M572.12,387.81c4.3,13.86,4.33,33.14,0,47-4.33-13.86-4.3-33.13,0-47h0Z"/>
      </g>
      <g>
        <polyline class="cls-8" points="651 224.29 614.31 256.09 623.48 282.99 588.63 314.18 561.11 306.84 524.42 349.65"/>
        <path class="cls-8" d="M651,224.29c-11.41,11.52-23.21,22.62-35.13,33.59,0,0,.69-2.56,.69-2.56,3.22,8.4,7.3,19.96,10.4,28.51-11.76,10.91-24.23,22.06-36.27,32.65,0,0-1.27,1.11-1.27,1.11l-1.59-.43c-9.15-2.54-18.28-5.14-27.39-7.8,0,0,2.65-.82,2.65-.82-12.05,13.32-25.99,28.44-38.67,41.11,10.56-14.46,23.4-30.56,34.71-44.5,0,0,.98-1.21,.98-1.21,9.79,2.33,19.56,4.78,29.31,7.26,0,0-2.86,.68-2.86,.68,11.33-10.32,23.34-21.05,34.92-31.11,0,0-.83,3.19-.83,3.19-2.84-8.6-6.44-20.14-9.09-28.69,0,0,1.19-.98,1.19-.98,12.55-10.25,25.22-20.35,38.24-30h0Z"/>
      </g>
      <g>
        <polyline class="cls-8" points="577.01 147.25 572.12 217.57 524.42 242.64 521.36 374.1 461.44 396.12"/>
        <path class="cls-8" d="M577.01,147.25c-.47,23.51-1.44,47-2.6,70.48,0,0-.07,1.24-.07,1.24-8.27,4.51-16.49,9.12-24.79,13.57,0,0-23.71,12.8-23.71,12.8l1.63-2.63-.64,32.87c-.76,32.4-1.9,67.91-3.34,100.11-20.38,6.89-41.54,14.09-62.05,20.43,19.29-8.21,39.62-16.35,59.17-24.06,0,0-1.43,2-1.43,2,.03-31.63,.59-66.81,1.31-98.62,0,0,.89-32.86,.89-32.86l.05-1.82,1.58-.81,23.98-12.27c7.99-4.11,16.04-8.08,24.06-12.13,0,0-1.22,1.88-1.22,1.88,2.11-23.41,4.39-46.81,7.19-70.16h0Z"/>
      </g>
      <g>
        <polyline class="cls-8" points="424.75 273.21 424.75 401.01 481.65 401.01 480.88 468.88"/>
        <path class="cls-8" d="M424.75,273.21c2.55,41.62,3.06,86,3.18,127.8,0,0-3.18-3.18-3.18-3.18,0,0,28.45,.14,28.45,.14,9.46,.14,21.78,.25,31.14,.52-.51,16.13-1.4,37.31-2.33,53.44-.24,4.19-.81,12.76-1.14,16.96-.24-4.26-.59-12.72-.75-16.98-.53-15.13-.95-35.79-1.07-50.92,0,0,2.6,2.63,2.6,2.63-17.51,.42-42.42,.52-60.1,.6,.14-42.91,.56-88.24,3.2-130.99h0Z"/>
      </g>
      <g>
        <line class="cls-8" x1="398.46" y1="388.91" x2="398.46" y2="439.66"/>
        <path class="cls-8" d="M398.46,388.91c4.3,14.96,4.33,35.79,0,50.75-4.33-14.96-4.3-35.78,0-50.75h0Z"/>
      </g>
      <g>
        <polyline class="cls-8" points="481.65 147.25 477.34 319.07 424.75 339.25"/>
        <path class="cls-8" d="M481.65,147.25c1.84,46.19,1.05,93.51-.45,139.68-.46,11.01-.86,22.97-1.49,33.92-13.29,4.73-28.07,9.82-41.5,14.17-4.47,1.44-8.95,2.88-13.46,4.23,4.26-2.01,8.54-3.94,12.83-5.86,12.37-5.51,26.34-11.47,38.87-16.62,0,0-1.58,2.24-1.58,2.24-.05-10.34,.13-21.83,.22-32.23,.81-46.2,2.41-93.49,6.56-139.53h0Z"/>
      </g>
      <g>
        <polyline class="cls-8" points="384.39 188.34 391.12 267.22 362.38 292.91 380.11 435.99"/>
        <path class="cls-8" d="M384.39,188.34c3.81,26.13,6.75,52.38,9.46,78.65,0,0,.13,1.33,.13,1.33l-1.03,.95c-8.2,7.59-20.27,18.6-28.49,25.96,0,0,1.02-2.71,1.02-2.71,6.01,47.4,11.49,95.77,14.63,143.47-8.6-47.02-15.09-95.26-20.83-142.7,0,0-.19-1.64-.19-1.64l1.21-1.07c8.18-7.33,20.6-18.11,28.99-25.4,0,0-.91,2.28-.91,2.28-1.78-26.35-3.32-52.71-3.99-79.11h0Z"/>
      </g>
      <g>
        <polyline class="cls-8" points="301.23 166.94 321.41 236.04 290.84 264.17 303.68 327.76 346.48 342.44 351.99 431.63"/>
        <path class="cls-8" d="M301.23,166.94c7.89,22.68,15.26,45.53,22.44,68.44,0,0,.42,1.36,.42,1.36,0,0-1.09,1.04-1.09,1.04-8.68,8.25-21.26,20.29-30.16,28.57,0,0,.9-2.77,.9-2.77,3.24,15.25,6.75,32.37,9.83,47.65,0,0,3.15,15.91,3.15,15.91,0,0-2.04-2.32-2.04-2.32,0,0,10.69,3.71,10.69,3.71,8.18,2.92,25.38,8.97,33.72,11.97,0,0,.08,1.76,.08,1.76,1.29,29.29,2.52,60.1,2.82,89.36-3.29-29.07-5.88-59.8-8.19-89.03,0,0,1.81,2.38,1.81,2.38-7.58-2.65-24.9-8.09-32.22-10.66-1.1-.37-11.63-3.94-12.39-4.19,0,0-.36-1.75-.36-1.75-3.09-14.79-6.7-32.87-9.61-47.7-1.17-5.85-2.32-11.73-3.41-17.6,0,0,1.21-1.09,1.21-1.09,9.13-8.1,21.89-19.78,30.98-27.68,0,0-.67,2.39-.67,2.39-6.28-23.17-12.36-46.4-17.92-69.76h0Z"/>
      </g>
      <g>
        <line class="cls-8" x1="258.43" y1="293.34" x2="293.9" y2="439.18"/>
        <path class="cls-8" d="M258.43,293.34c8.35,23.67,14.81,47.85,20.83,72.17,5.84,24.36,11.2,48.81,14.64,73.67-8.36-23.66-14.82-47.84-20.83-72.17-5.82-24.37-11.19-48.81-14.64-73.67h0Z"/>
      </g>
      <g>
        <polyline class="cls-8" points="197.28 239.22 218.07 324.83 266.09 324.83"/>
        <path class="cls-8" d="M197.28,239.22c10,27.68,17.25,56.22,23.66,84.91,0,0-2.87-2.26-2.87-2.26,12.02,.28,24.03,.8,36.01,1.78,4,.31,8,.7,12,1.18-7.99,.95-15.99,1.54-24.01,2.01-8.74,.51-17.5,.82-26.26,.99-2.13-7.85-4.13-15.75-6.03-23.65-5.1-21.46-9.72-43.04-12.51-64.95h0Z"/>
      </g>
      <g>
        <line class="cls-8" x1="238.99" y1="388.91" x2="261.61" y2="451.89"/>
        <path class="cls-8" d="M238.99,388.91c6.11,9.56,10.43,19.86,14.31,30.41,3.74,10.61,6.96,21.3,8.32,32.57-6.12-9.55-10.44-19.86-14.31-30.41-3.72-10.61-6.94-21.31-8.32-32.57h0Z"/>
      </g>
      <g>
        <polyline class="cls-8" points="130.02 338.89 152.65 411.31 222.35 432.45 231.69 483.81"/>
        <path class="cls-8" d="M130.02,338.89c6.83,16.94,13.55,36.14,19.52,53.52,0,0,5.98,18,5.98,18l-2-1.99c5.83,1.69,11.66,3.39,17.47,5.14,17.46,5.27,36.46,11.16,53.65,16.98,2.58,16.97,5.36,36.22,7.05,53.27-4.26-16.03-8.41-34.63-11.84-50.91,0,0,1.76,1.98,1.76,1.98-16.92-4.6-35.6-10.11-52.46-15.26-6.33-1.93-12.65-3.92-18.95-5.92,0,0-.44-1.49-.44-1.49,0,0-5.33-18.21-5.33-18.21-4.95-17.7-10.41-37.26-14.42-55.11h0Z"/>
      </g>
      <g>
        <polyline class="cls-8" points="101.41 447 142.38 480.63 212.09 483.07 212.09 527.71"/>
        <path class="cls-8" d="M101.41,447c14.61,9.87,28.85,20.62,42.74,31.47,0,0-1.68-.63-1.68-.63,17.44,.18,34.87,.72,52.29,1.63,6.65,.39,13.34,.71,19.99,1.21,0,0-.09,2.4-.09,2.4-.49,14.23-1.2,30.49-2.58,44.64-1.36-14.13-2.12-30.41-2.58-44.64,0,0,2.49,2.58,2.49,2.58-5.82,0-11.63-.14-17.44-.2-17.44-.31-34.86-1-52.27-2.04,0,0-.99-.05-.99-.05,0,0-.68-.58-.68-.58-13.35-11.51-26.67-23.39-39.19-35.79h0Z"/>
      </g>
      <g>
        <line class="cls-8" x1="145.56" y1="564.25" x2="207.93" y2="548.99"/>
        <path class="cls-8" d="M145.56,564.25c9.7-4.96,19.96-8.08,30.43-10.72,10.5-2.5,21.04-4.47,31.94-4.54-9.7,4.97-19.96,8.09-30.43,10.72-10.51,2.49-21.04,4.46-31.94,4.54h0Z"/>
      </g>
      <g>
        <line class="cls-8" x1="228.47" y1="611.36" x2="196.49" y2="625.9"/>
        <path class="cls-8" d="M228.47,611.36c-7.59,8.17-20.82,14.22-31.97,14.54,7.57-8.19,20.83-14.19,31.97-14.54h0Z"/>
      </g>
      <g>
        <line class="cls-8" x1="732.32" y1="613.8" x2="762.25" y2="622.26"/>
        <path class="cls-8" d="M732.32,613.8c9.91-1.66,22.36,1.82,29.93,8.46-9.92,1.69-22.34-1.85-29.93-8.46h0Z"/>
      </g>
      <g>
        <circle class="cls-8" cx="117.38" cy="571.69" r="28.66"/>
        <path class="cls-8" d="M146.05,571.69c-.08,26.22-31.38,40.15-50.87,22.21-12.77-11.64-12.78-32.78-.01-44.42,19.49-17.97,50.8-4.01,50.88,22.22h0Zm0,0c.16-15.39-13.34-28.17-28.66-27.06-14.13,.68-25.68,13.18-25.48,27.06-.21,13.89,11.34,26.4,25.48,27.08,15.32,1.1,28.82-11.69,28.66-27.08h0Z"/>
      </g>
      <g>
        <circle class="cls-8" cx="80.78" cy="435.99" r="23.22"/>
        <path class="cls-8" d="M103.99,435.99c.19,16.68-16.99,29.18-32.95,23.5-22.12-7.86-22.13-39.16,0-47.02,15.97-5.68,33.15,6.83,32.96,23.52h0Zm0,0c-.16-20-24.4-29.09-37.68-14.47-7.38,8.01-7.38,20.93-.01,28.94,13.29,14.65,37.54,5.53,37.69-14.48h0Z"/>
      </g>
      <g>
        <circle class="cls-8" cx="118.42" cy="317.45" r="24.11"/>
        <path class="cls-8" d="M142.53,317.45c.15,17.37-17.58,30.23-34.19,24.33-22.87-8.2-22.87-40.47,0-48.67,16.61-5.91,34.36,6.98,34.2,24.34h0Zm0,0c-.14-20.78-25.4-30.3-39.22-15.1-7.72,8.34-7.73,21.87-.01,30.22,13.82,15.21,39.09,5.67,39.23-15.11h0Z"/>
      </g>
      <g>
        <circle class="cls-8" cx="192.25" cy="215.64" r="24.11"/>
        <path class="cls-8" d="M216.37,215.64c.15,17.37-17.58,30.23-34.19,24.33-22.87-8.2-22.87-40.47,0-48.67,16.61-5.91,34.36,6.98,34.2,24.34h0Zm0,0c-.14-20.78-25.4-30.3-39.22-15.1-7.72,8.34-7.73,21.87-.01,30.22,13.82,15.21,39.09,5.67,39.23-15.11h0Z"/>
      </g>
      <g>
        <circle class="cls-8" cx="292.34" cy="139.71" r="27.24"/>
        <path class="cls-8" d="M319.58,139.71c-.08,24.95-29.84,38.25-48.43,21.2-12.22-11.1-12.23-31.3-.01-42.4,18.59-17.08,48.37-3.75,48.44,21.21h0Zm0,0c.15-14.61-12.69-26.74-27.24-25.63-13.36,.7-24.23,12.52-24.05,25.63-.19,13.12,10.68,24.96,24.05,25.65,14.55,1.1,27.39-11.04,27.23-25.65h0Z"/>
      </g>
      <g>
        <circle class="cls-8" cx="480.34" cy="106.06" r="40.01"/>
        <path class="cls-8" d="M520.35,106.06c.37,21.68-18.08,41.08-40.01,41.6-16.77,.87-33.3-9.56-39.8-25.11-4.5-10.38-4.51-22.6,0-32.98,6.49-15.56,23.03-26,39.81-25.12,21.94,.53,40.39,19.93,40.01,41.61h0Zm0,0c.15-21.64-18.43-39.52-40.01-38.41-20.22,.57-37.16,18.44-36.83,38.41-.34,19.98,16.59,37.87,36.83,38.43,21.59,1.1,40.16-16.79,40.01-38.43h0Z"/>
      </g>
      <g>
        <circle class="cls-8" cx="251.58" cy="273.44" r="19.9"/>
        <path class="cls-8" d="M271.48,273.44c.17,14.35-14.54,25.2-28.36,20.43-19.39-6.7-19.42-34.16,0-40.88,13.82-4.77,28.54,6.1,28.37,20.45h0Zm0,0c.16-10.59-9.43-19.42-19.9-18.3-9.42,.77-16.82,9.11-16.71,18.3-.11,9.19,7.28,17.55,16.71,18.31,10.47,1.12,20.05-7.72,19.9-18.31h0Z"/>
      </g>
      <g>
        <circle class="cls-8" cx="382.28" cy="168.45" r="19.9"/>
        <path class="cls-8" d="M402.17,168.45c.17,14.35-14.55,25.2-28.36,20.43-19.39-6.7-19.42-34.16,0-40.88,13.82-4.77,28.54,6.1,28.37,20.45h0Zm0,0c.16-10.59-9.43-19.42-19.9-18.3-9.42,.77-16.82,9.11-16.71,18.3-.11,9.19,7.28,17.55,16.71,18.31,10.47,1.12,20.05-7.72,19.9-18.31h0Z"/>
      </g>
      <g>
        <circle class="cls-8" cx="579.74" cy="127.35" r="19.9"/>
        <path class="cls-8" d="M599.63,127.35c.17,14.35-14.54,25.2-28.36,20.43-19.39-6.7-19.42-34.16,0-40.88,13.82-4.77,28.54,6.1,28.37,20.45h0Zm0,0c.16-10.59-9.43-19.42-19.9-18.3-9.42,.77-16.82,9.11-16.71,18.3-.12,9.19,7.28,17.55,16.71,18.31,10.47,1.12,20.05-7.72,19.9-18.31h0Z"/>
      </g>
      <g>
        <circle class="cls-8" cx="671.46" cy="290.82" r="22.19"/>
        <path class="cls-8" d="M693.65,290.81c.19,15.96-16.23,27.95-31.53,22.55-21.28-7.5-21.29-37.62,0-45.12,15.31-5.4,31.73,6.61,31.54,22.57h0Zm0,0c-.15-19.09-23.29-27.73-35.93-13.74-6.98,7.63-6.99,19.86-.01,27.49,12.64,14.01,35.79,5.34,35.94-13.75h0Z"/>
      </g>
      <g>
        <circle class="cls-8" cx="777.85" cy="256.42" r="22.19"/>
        <path class="cls-8" d="M800.04,256.42c.19,15.96-16.23,27.95-31.53,22.55-21.28-7.5-21.29-37.62,0-45.12,15.31-5.4,31.73,6.61,31.54,22.57h0Zm0,0c-.15-19.09-23.29-27.73-35.93-13.74-6.98,7.63-6.99,19.86-.01,27.49,12.64,14.01,35.79,5.34,35.94-13.75h0Z"/>
      </g>
      <g>
        <circle class="cls-8" cx="816.62" cy="316.31" r="19.66"/>
        <path class="cls-8" d="M836.27,316.3c.17,14.18-14.37,24.92-28.03,20.21-19.19-6.61-19.23-33.8,0-40.44,13.67-4.71,28.21,6.04,28.04,20.23h0Zm0,0c.15-10.46-9.32-19.18-19.66-18.05-9.29,.78-16.57,9-16.47,18.05-.11,9.06,7.17,17.3,16.47,18.07,10.34,1.12,19.81-7.61,19.66-18.07h0Z"/>
      </g>
      <g>
        <circle class="cls-8" cx="834.08" cy="394.1" r="17.46"/>
        <path class="cls-8" d="M851.55,394.1c.15,12.64-12.76,22.29-25,18.19-17.4-5.82-17.4-30.57,0-36.39,12.25-4.11,25.16,5.56,25.01,18.2h0Zm0,0c.17-9.24-8.36-17-17.46-15.86-8.11,.8-14.36,7.98-14.28,15.86-.09,7.88,6.16,15.09,14.28,15.88,9.11,1.13,17.63-6.64,17.46-15.88h0Z"/>
      </g>
      <g>
        <circle class="cls-8" cx="884" cy="429.84" r="22.44"/>
        <path class="cls-8" d="M906.44,429.84c.19,16.14-16.41,28.25-31.88,22.78-21.49-7.59-21.49-37.99,0-45.58,15.47-5.47,32.07,6.66,31.88,22.8h0Zm0,0c-.16-19.32-23.56-28.06-36.36-13.92-7.08,7.72-7.08,20.12-.01,27.85,12.8,14.16,36.21,5.39,36.37-13.93h0Z"/>
      </g>
      <g>
        <circle class="cls-8" cx="835.65" cy="513.64" r="25.91"/>
        <path class="cls-8" d="M861.56,513.64c-.07,23.78-28.42,36.49-46.17,20.26-11.7-10.59-11.71-29.93-.01-40.53,17.75-16.25,46.12-3.51,46.18,20.27h0Zm0,0c.14-13.89-12.09-25.41-25.91-24.31-12.65,.71-22.9,11.9-22.73,24.31-.18,12.41,10.07,23.62,22.73,24.33,13.83,1.09,26.05-10.43,25.91-24.33h0Z"/>
      </g>
      <g>
        <circle class="cls-8" cx="673.98" cy="205.52" r="27.92"/>
        <path class="cls-8" d="M701.9,205.52c-.08,25.56-30.58,39.17-49.6,21.68-12.48-11.36-12.49-32.01-.01-43.38,19.02-17.51,49.54-3.87,49.62,21.69h0Zm0,0c.15-14.99-13.01-27.43-27.92-26.32-13.73,.69-24.93,12.84-24.74,26.32-.2,13.49,11,25.66,24.74,26.34,14.92,1.1,28.08-11.35,27.92-26.34h0Z"/>
      </g>
      <g>
        <circle class="cls-8" cx="422.59" cy="254.56" r="17.73"/>
        <path class="cls-8" d="M440.32,254.56c.15,12.83-12.95,22.62-25.37,18.44-17.62-5.91-17.62-30.97,0-36.89,12.42-4.18,25.53,5.62,25.38,18.45h0Zm0,0c.17-9.39-8.48-17.27-17.73-16.13-8.26,.79-14.63,8.11-14.55,16.13-.09,8.03,6.28,15.36,14.55,16.15,9.26,1.13,17.9-6.76,17.73-16.15h0Z"/>
      </g>
      <g>
        <circle class="cls-8" cx="397.54" cy="375.15" r="13.63"/>
        <path class="cls-8" d="M411.17,375.15c.19,9.89-10.02,17.75-19.7,14.65-14.25-4.5-14.26-24.81,0-29.31,9.69-3.11,19.89,4.77,19.71,14.66h0Zm0,0c.16-7.15-6.64-13.17-13.63-12.03-13.86,2.32-13.87,21.77,0,24.08,6.94,1.13,13.78-4.83,13.63-12.05h0Z"/>
      </g>
      <g>
        <circle class="cls-8" cx="242.1" cy="604.99" r="13.63"/>
        <path class="cls-8" d="M255.73,604.99c.19,9.89-10.02,17.76-19.7,14.65-14.25-4.5-14.26-24.81,0-29.31,9.69-3.11,19.89,4.77,19.71,14.66h0Zm0,0c.16-7.15-6.64-13.17-13.63-12.03-13.86,2.32-13.87,21.77,0,24.08,6.94,1.13,13.78-4.83,13.63-12.05h0Z"/>
      </g>
      <g>
        <circle class="cls-8" cx="572.12" cy="374.36" r="13.63"/>
        <path class="cls-8" d="M585.75,374.36c.19,9.89-10.02,17.75-19.7,14.65-14.25-4.5-14.26-24.81,0-29.31,9.69-3.11,19.89,4.77,19.71,14.66h0Zm0,0c.16-7.15-6.64-13.17-13.63-12.03-13.86,2.32-13.87,21.77,0,24.08,6.94,1.13,13.78-4.83,13.63-12.05h0Z"/>
      </g>
      <g>
        <circle class="cls-8" cx="718.69" cy="608.63" r="13.63"/>
        <path class="cls-8" d="M732.32,608.63c.19,9.89-10.02,17.75-19.7,14.65-14.25-4.5-14.26-24.81,0-29.31,9.69-3.11,19.89,4.77,19.71,14.66h0Zm0,0c.16-7.15-6.64-13.17-13.63-12.03-13.86,2.32-13.87,21.77,0,24.08,6.94,1.13,13.78-4.83,13.63-12.05h0Z"/>
      </g>
      <g>
        <circle class="cls-8" cx="226.19" cy="367.93" r="24.11"/>
        <path class="cls-8" d="M250.3,367.93c.15,17.37-17.58,30.23-34.19,24.33-22.87-8.2-22.87-40.47,0-48.67,16.61-5.91,34.36,6.98,34.2,24.34h0Zm0,0c-.14-20.78-25.4-30.3-39.22-15.1-7.72,8.34-7.73,21.87-.01,30.22,13.82,15.21,39.09,5.67,39.23-15.11h0Z"/>
      </g>
      <g>
        <line class="cls-8" x1="768.8" y1="778.95" x2="681.01" y2="778.95"/>
        <path class="cls-8" d="M768.8,778.95c-14.56,2.52-29.2,3.1-43.9,3.18-14.7-.07-29.34-.65-43.9-3.18,14.56-2.53,29.2-3.11,43.9-3.18,14.7,.08,29.34,.66,43.9,3.18h0Z"/>
      </g>
      <g>
        <line class="cls-8" x1="768.32" y1="755.61" x2="703.02" y2="755.61"/>
        <path class="cls-8" d="M768.32,755.61c-10.79,2.51-21.68,3.1-32.65,3.18-10.98-.07-21.86-.66-32.65-3.18,10.79-2.53,21.67-3.11,32.65-3.18,10.97,.08,21.86,.67,32.65,3.18h0Z"/>
      </g>
      <g>
        <g>
          <path class="cls-8" d="M424.75,578.13s80.64,80.13,0,154.09"/>
          <path class="cls-8" d="M424.75,578.13c20.38,18.3,35.4,44.46,38.51,71.9,3.6,33.11-12.74,62.54-38.51,82.19,9.8-10.81,18.37-22.52,24.4-35.36,19.21-41.07,1.93-85.12-24.4-118.73h0Z"/>
        </g>
        <g>
          <path class="cls-8" d="M304.63,665.52c10.76-7.84,52.02-35.87,105.43-26.33,21.73,3.89,38.66,12.78,49.92,20.17"/>
          <path class="cls-8" d="M304.63,665.52c21.03-18.42,48.66-29.75,76.66-31.29,28.1-1.5,56.86,7.55,78.69,25.14-12.28-6.46-25.01-11.66-38.19-14.9-40.08-10.33-82.19-.02-117.16,21.06h0Z"/>
        </g>
      </g>
      <g>
        <path class="cls-8" d="M598.06,833.93c-3.9,19.72-77.34,58.91-139.27,46.66-61.93-12.25-111.04-68.74-107.14-88.46,3.9-19.72,59.33,4.8,121.26,17.05,61.93,12.25,129.05,5.03,125.15,24.75Z"/>
        <path class="cls-8" d="M598.37,833.99c-2.48,9.94-16.27,19.08-24.51,24.54-29.95,18.66-65.76,29.81-101.26,26.61-35.28-3.65-67.8-22.68-93.77-46.09-11.39-10.78-28.89-28.75-29.59-45.22,.46-20.08,37.08-8.8,48.87-6.38,28.46,7,56.25,15.1,84.91,20.26,16.47,2.85,35.15,4.99,51.84,6.94,11.6,1.32,23.24,2.56,34.85,4.22,8.06,1.55,31.01,3.44,28.65,15.12h0Zm-.62-.12c2.03-11.15-20.71-12.37-28.23-13.27-5.8-.52-11.62-.82-17.45-1.07-10.5-.42-24.76-.91-35.06-1.59-23.47-1.36-46.8-5.18-69.59-10.97-17.02-4.14-33.88-9.28-50.76-13.72-10.93-2.7-22.43-6.01-33.59-5.91-5.31,.2-9.68,1.78-9.42,7.61,.71,14.32,16.57,32.77,26.68,42.52,20.84,20.03,47.25,34.67,75.68,40.19,16.89,3.42,34.32,2.97,51.31,.56,22.79-3.49,45.41-9.98,65.71-21.1,8.64-4.96,21.97-13.31,24.72-23.26h0Z"/>
      </g>
    </g>
  </g>
  <polygon class="cls-4" points="192.25 449.32 260.75 677.49 735.67 558.31 707.03 328.01 192.25 449.32"/>
  <g>
    <g>
      <path d="M753.69,545.24c9.82,53.91,9.53,109.18,12.42,163.73,2.29,50.5,10.78,116.31-12.32,162.5-6.07,12.48-15.07,23.21-24.9,32.9-28.94,29.41-63.04,53.29-97.88,75.09-40.41,25.6-82.71,51.39-130.27,61.2-11.8,2.64-24.1,4.72-36.29,4.32-50.52-.89-94.96-32.45-137.55-56.42-17.72-10.46-35.23-21.36-52.12-33.15-11.36-7.8-22.37-16.37-31.64-26.62-52.74-57.69-47.6-142.82-48.91-215.87,.33-47.85,.07-96.15,9.47-143.26,1.3-6.63,3.03-13.6,4.34-20.08-2.91,13.3-5.94,26.89-7.76,40.33-7.22,54.33-5.83,109.4-4.72,164.08,1.79,61.57,6.65,130.88,53.37,176.36,8.43,8.39,18.05,15.49,27.91,22.08,16.97,11.5,34.53,22.07,52.3,32.29,35.52,19.5,70.38,42.84,110.47,51.44,19.88,4.27,40.12,2.91,59.84-1.51,47.13-9.19,88.72-34.02,129.21-58.96,34.98-21.3,69.08-44.41,98.27-73.27,9.79-9.4,18.77-19.75,24.89-31.95,23.23-45.07,15.69-111.63,13.74-161.47-2.52-54.57-2.11-109.84-11.88-163.76h0Z"/>
      <ellipse class="cls-3" cx="592.47" cy="668.38" rx="77.54" ry="110.07"/>
      <ellipse class="cls-6" cx="579.74" cy="665.52" rx="62.14" ry="83.47"/>
      <path class="cls-6" d="M437.9,509.15c-7.52-21.52-45.7-19.08-89.21-3.87-43.51,15.22-69.06,40.11-61.54,61.62s36.06,6.83,79.58-8.39c43.51-15.22,78.69-27.85,71.17-49.37Z"/>
      <path class="cls-6" d="M699.29,554.67c8.44-21.17-21.95-44.39-64.77-61.47-42.82-17.08-78.43-15.06-86.87,6.11-8.44,21.17,22.73,28.82,65.55,45.9,42.82,17.08,77.65,30.63,86.1,9.46Z"/>
      <g>
        <circle class="cls-1" cx="677.57" cy="852.78" r="23.13"/>
        <path d="M700.7,852.78c.19,16.62-16.92,29.07-32.83,23.42-22.05-7.83-22.06-39.03,0-46.85,15.91-5.66,33.03,6.81,32.84,23.44h0Zm0,0c-.16-19.93-24.3-28.98-37.53-14.4-7.34,7.98-7.35,20.84-.01,28.82,13.24,14.59,37.39,5.51,37.54-14.42h0Z"/>
      </g>
      <g>
        <circle class="cls-9" cx="730.16" cy="823.43" r="23.13"/>
        <path d="M753.29,823.43c.19,16.62-16.92,29.07-32.83,23.42-22.05-7.83-22.06-39.03,0-46.85,15.91-5.66,33.03,6.81,32.84,23.44h0Zm0,0c-.16-19.93-24.3-28.98-37.53-14.4-7.34,7.98-7.35,20.84-.01,28.82,13.24,14.59,37.39,5.51,37.54-14.42h0Z"/>
      </g>
      <path d="M811.81,519.76c-8.75,6.32-18.34,10.9-28.2,15.05-9.92,4.01-19.95,7.5-30.62,9.16,8.75-6.33,18.33-10.92,28.2-15.05,9.92-4,19.95-7.49,30.62-9.16h0Z"/>
      <path d="M864.4,441.49c-12.81,9.62-26.73,18.89-40.14,27.72-25.25,.66-51.46,.73-76.65-.05,0,0,2.61-2.61,2.61-2.61-.48,14.88-1.2,31.08-2.61,45.86-1.43-14.76-2.1-30.99-2.61-45.86,0,0-.09-2.52-.09-2.52l2.69-.08c24.89-.77,50.87-.72,75.82-.07,0,0-1.39,.39-1.39,.39,13.77-7.82,28.17-15.85,42.36-22.79h0Z"/>
      <path d="M819.15,402.49c-15.8,12.14-32.64,22.63-49.76,32.71-17.2,9.95-34.61,19.44-52.97,27.21,15.79-12.15,32.63-22.64,49.76-32.71,17.21-9.94,34.62-19.43,52.97-27.21h0Z"/>
      <path d="M806,333.26c-10.94,19.79-23.69,39.64-36.09,58.61-11.38,5.9-24.03,12.17-35.63,17.78-19.46,9.27-39.38,18.51-59.44,26.34,21.93-13.56,45.32-25.93,68.3-37.68,7.72-3.92,15.48-7.76,23.28-11.53l-1.16,1.02c12.92-18.32,26.54-37.25,40.75-54.53h0Z"/>
      <path d="M768.81,276.4c-6.28,26.01-13.73,51.71-21.43,77.33,0,0-.52,1.75-.52,1.75-17.39,2.61-36.72,5.14-54.18,7.29-5.81,.73-11.64,1.36-17.46,2.04l2.29-1.86c-1.52,4.17-4.72,12.55-6.33,16.69-6.36,16.54-13.08,33.41-20.18,49.63,4.69-17.06,10.12-34.41,15.59-51.26,1.63-5.03,4.42-13.56,6.13-18.55,12.18-1.81,24.36-3.59,36.56-5.19,10.24-1.33,24.75-3.25,34.88-4.37,0,0-2.43,2.04-2.43,2.04,8.48-25.37,17.21-50.66,27.07-75.54h0Z"/>
      <path d="M661.39,313.08c-6.55,20.37-14.89,39.98-23.7,59.42-8.95,19.38-18.34,38.5-29.49,56.76,6.54-20.37,14.88-39.98,23.7-59.42,8.96-19.37,18.35-38.5,29.49-56.76h0Z"/>
      <path d="M572.12,387.81c4.3,13.86,4.33,33.14,0,47-4.33-13.86-4.3-33.13,0-47h0Z"/>
      <path d="M651,224.29c-11.41,11.52-23.21,22.62-35.13,33.59,0,0,.69-2.56,.69-2.56,3.22,8.4,7.3,19.96,10.4,28.51-11.76,10.91-24.23,22.06-36.27,32.65,0,0-1.27,1.11-1.27,1.11l-1.59-.43c-9.15-2.54-18.28-5.14-27.39-7.8,0,0,2.65-.82,2.65-.82-12.05,13.32-25.99,28.44-38.67,41.11,10.56-14.46,23.4-30.56,34.71-44.5,0,0,.98-1.21,.98-1.21,9.79,2.33,19.56,4.78,29.31,7.26,0,0-2.86,.68-2.86,.68,11.33-10.32,23.34-21.05,34.92-31.11,0,0-.83,3.19-.83,3.19-2.84-8.6-6.44-20.14-9.09-28.69,0,0,1.19-.98,1.19-.98,12.55-10.25,25.22-20.35,38.24-30h0Z"/>
      <path d="M577.01,147.25c-.47,23.51-1.44,47-2.6,70.48,0,0-.07,1.24-.07,1.24-8.27,4.51-16.49,9.12-24.79,13.57,0,0-23.71,12.8-23.71,12.8l1.63-2.63-.64,32.87c-.76,32.4-1.9,67.91-3.34,100.11-20.38,6.89-41.54,14.09-62.05,20.43,19.29-8.21,39.62-16.35,59.17-24.06,0,0-1.43,2-1.43,2,.03-31.63,.59-66.81,1.31-98.62,0,0,.89-32.86,.89-32.86l.05-1.82,1.58-.81,23.98-12.27c7.99-4.11,16.04-8.08,24.06-12.13,0,0-1.22,1.88-1.22,1.88,2.11-23.41,4.39-46.81,7.19-70.16h0Z"/>
      <path d="M424.75,273.21c2.55,41.62,3.06,86,3.18,127.8,0,0-3.18-3.18-3.18-3.18,0,0,28.45,.14,28.45,.14,9.46,.14,21.78,.25,31.14,.52-.51,16.13-1.4,37.31-2.33,53.44-.24,4.19-.81,12.76-1.14,16.96-.24-4.26-.59-12.72-.75-16.98-.53-15.13-.95-35.79-1.07-50.92,0,0,2.6,2.63,2.6,2.63-17.51,.42-42.42,.52-60.1,.6,.14-42.91,.56-88.24,3.2-130.99h0Z"/>
      <path d="M398.46,388.91c4.3,14.96,4.33,35.79,0,50.75-4.33-14.96-4.3-35.78,0-50.75h0Z"/>
      <path d="M481.65,147.25c1.84,46.19,1.05,93.51-.45,139.68-.46,11.01-.86,22.97-1.49,33.92-13.29,4.73-28.07,9.82-41.5,14.17-4.47,1.44-8.95,2.88-13.46,4.23,4.26-2.01,8.54-3.94,12.83-5.86,12.37-5.51,26.34-11.47,38.87-16.62,0,0-1.58,2.24-1.58,2.24-.05-10.34,.13-21.83,.22-32.23,.81-46.2,2.41-93.49,6.56-139.53h0Z"/>
      <path d="M384.39,188.34c3.81,26.13,6.75,52.38,9.46,78.65,0,0,.13,1.33,.13,1.33l-1.03,.95c-8.2,7.59-20.27,18.6-28.49,25.96,0,0,1.02-2.71,1.02-2.71,6.01,47.4,11.49,95.77,14.63,143.47-8.6-47.02-15.09-95.26-20.83-142.7,0,0-.19-1.64-.19-1.64l1.21-1.07c8.18-7.33,20.6-18.11,28.99-25.4,0,0-.91,2.28-.91,2.28-1.78-26.35-3.32-52.71-3.99-79.11h0Z"/>
      <path d="M301.23,166.94c7.89,22.68,15.26,45.53,22.44,68.44,0,0,.42,1.36,.42,1.36,0,0-1.09,1.04-1.09,1.04-8.68,8.25-21.26,20.29-30.16,28.57,0,0,.9-2.77,.9-2.77,3.24,15.25,6.75,32.37,9.83,47.65,0,0,3.15,15.91,3.15,15.91,0,0-2.04-2.32-2.04-2.32,0,0,10.69,3.71,10.69,3.71,8.18,2.92,25.38,8.97,33.72,11.97,0,0,.08,1.76,.08,1.76,1.29,29.29,2.52,60.1,2.82,89.36-3.29-29.07-5.88-59.8-8.19-89.03,0,0,1.81,2.38,1.81,2.38-7.58-2.65-24.9-8.09-32.22-10.66-1.1-.37-11.63-3.94-12.39-4.19,0,0-.36-1.75-.36-1.75-3.09-14.79-6.7-32.87-9.61-47.7-1.17-5.85-2.32-11.73-3.41-17.6,0,0,1.21-1.09,1.21-1.09,9.13-8.1,21.89-19.78,30.98-27.68,0,0-.67,2.39-.67,2.39-6.28-23.17-12.36-46.4-17.92-69.76h0Z"/>
      <path d="M258.43,293.34c8.35,23.67,14.81,47.85,20.83,72.17,5.84,24.36,11.2,48.81,14.64,73.67-8.36-23.66-14.82-47.84-20.83-72.17-5.82-24.37-11.19-48.81-14.64-73.67h0Z"/>
      <path d="M197.28,239.22c10,27.68,17.25,56.22,23.66,84.91,0,0-2.87-2.26-2.87-2.26,12.02,.28,24.03,.8,36.01,1.78,4,.31,8,.7,12,1.18-7.99,.95-15.99,1.54-24.01,2.01-8.74,.51-17.5,.82-26.26,.99-2.13-7.85-4.13-15.75-6.03-23.65-5.1-21.46-9.72-43.04-12.51-64.95h0Z"/>
      <path d="M238.99,388.91c6.11,9.56,10.43,19.86,14.31,30.41,3.74,10.61,6.96,21.3,8.32,32.57-6.12-9.55-10.44-19.86-14.31-30.41-3.72-10.61-6.94-21.31-8.32-32.57h0Z"/>
      <path d="M130.02,338.89c6.83,16.94,13.55,36.14,19.52,53.52,0,0,5.98,18,5.98,18l-2-1.99c5.83,1.69,11.66,3.39,17.47,5.14,17.46,5.27,36.46,11.16,53.65,16.98,2.58,16.97,5.36,36.22,7.05,53.27-4.26-16.03-8.41-34.63-11.84-50.91,0,0,1.76,1.98,1.76,1.98-16.92-4.6-35.6-10.11-52.46-15.26-6.33-1.93-12.65-3.92-18.95-5.92,0,0-.44-1.49-.44-1.49,0,0-5.33-18.21-5.33-18.21-4.95-17.7-10.41-37.26-14.42-55.11h0Z"/>
      <path d="M101.41,447c14.61,9.87,28.85,20.62,42.74,31.47,0,0-1.68-.63-1.68-.63,17.44,.18,34.87,.72,52.29,1.63,6.65,.39,13.34,.71,19.99,1.21,0,0-.09,2.4-.09,2.4-.49,14.23-1.2,30.49-2.58,44.64-1.36-14.13-2.12-30.41-2.58-44.64,0,0,2.49,2.58,2.49,2.58-5.82,0-11.63-.14-17.44-.2-17.44-.31-34.86-1-52.27-2.04,0,0-.99-.05-.99-.05,0,0-.68-.58-.68-.58-13.35-11.51-26.67-23.39-39.19-35.79h0Z"/>
      <path d="M145.56,564.25c9.7-4.96,19.96-8.08,30.43-10.72,10.5-2.5,21.04-4.47,31.94-4.54-9.7,4.97-19.96,8.09-30.43,10.72-10.51,2.49-21.04,4.46-31.94,4.54h0Z"/>
      <path d="M228.47,611.36c-7.59,8.17-20.82,14.22-31.97,14.54,7.57-8.19,20.83-14.19,31.97-14.54h0Z"/>
      <path d="M732.32,613.8c9.91-1.66,22.36,1.82,29.93,8.46-9.92,1.69-22.34-1.85-29.93-8.46h0Z"/>
      <g>
        <circle class="cls-5" cx="117.38" cy="571.69" r="28.66"/>
        <path d="M146.05,571.69c-.08,26.22-31.38,40.15-50.87,22.21-12.77-11.64-12.78-32.78-.01-44.42,19.49-17.97,50.8-4.01,50.88,22.22h0Zm0,0c.16-15.39-13.34-28.17-28.66-27.06-14.13,.68-25.68,13.18-25.48,27.06-.21,13.89,11.34,26.4,25.48,27.08,15.32,1.1,28.82-11.69,28.66-27.08h0Z"/>
      </g>
      <g>
        <circle class="cls-9" cx="80.78" cy="435.99" r="23.22"/>
        <path d="M103.99,435.99c.19,16.68-16.99,29.18-32.95,23.5-22.12-7.86-22.13-39.16,0-47.02,15.97-5.68,33.15,6.83,32.96,23.52h0Zm0,0c-.16-20-24.4-29.09-37.68-14.47-7.38,8.01-7.38,20.93-.01,28.94,13.29,14.65,37.54,5.53,37.69-14.48h0Z"/>
      </g>
      <g>
        <circle class="cls-5" cx="118.42" cy="317.45" r="24.11"/>
        <path d="M142.53,317.45c.15,17.37-17.58,30.23-34.19,24.33-22.87-8.2-22.87-40.47,0-48.67,16.61-5.91,34.36,6.98,34.2,24.34h0Zm0,0c-.14-20.78-25.4-30.3-39.22-15.1-7.72,8.34-7.73,21.87-.01,30.22,13.82,15.21,39.09,5.67,39.23-15.11h0Z"/>
      </g>
      <g>
        <circle class="cls-9" cx="192.25" cy="215.64" r="24.11"/>
        <path d="M216.37,215.64c.15,17.37-17.58,30.23-34.19,24.33-22.87-8.2-22.87-40.47,0-48.67,16.61-5.91,34.36,6.98,34.2,24.34h0Zm0,0c-.14-20.78-25.4-30.3-39.22-15.1-7.72,8.34-7.73,21.87-.01,30.22,13.82,15.21,39.09,5.67,39.23-15.11h0Z"/>
      </g>
      <g>
        <circle class="cls-5" cx="292.34" cy="139.71" r="27.24"/>
        <path d="M319.58,139.71c-.08,24.95-29.84,38.25-48.43,21.2-12.22-11.1-12.23-31.3-.01-42.4,18.59-17.08,48.37-3.75,48.44,21.21h0Zm0,0c.15-14.61-12.69-26.74-27.24-25.63-13.36,.7-24.23,12.52-24.05,25.63-.19,13.12,10.68,24.96,24.05,25.65,14.55,1.1,27.39-11.04,27.23-25.65h0Z"/>
      </g>
      <g>
        <circle class="cls-9" cx="480.34" cy="106.06" r="40.01"/>
        <path d="M520.35,106.06c.37,21.68-18.08,41.08-40.01,41.6-16.77,.87-33.3-9.56-39.8-25.11-4.5-10.38-4.51-22.6,0-32.98,6.49-15.56,23.03-26,39.81-25.12,21.94,.53,40.39,19.93,40.01,41.61h0Zm0,0c.15-21.64-18.43-39.52-40.01-38.41-20.22,.57-37.16,18.44-36.83,38.41-.34,19.98,16.59,37.87,36.83,38.43,21.59,1.1,40.16-16.79,40.01-38.43h0Z"/>
      </g>
      <g>
        <circle class="cls-5" cx="251.58" cy="273.44" r="19.9"/>
        <path d="M271.48,273.44c.17,14.35-14.54,25.2-28.36,20.43-19.39-6.7-19.42-34.16,0-40.88,13.82-4.77,28.54,6.1,28.37,20.45h0Zm0,0c.16-10.59-9.43-19.42-19.9-18.3-9.42,.77-16.82,9.11-16.71,18.3-.11,9.19,7.28,17.55,16.71,18.31,10.47,1.12,20.05-7.72,19.9-18.31h0Z"/>
      </g>
      <g>
        <circle class="cls-9" cx="382.28" cy="168.45" r="19.9"/>
        <path d="M402.17,168.45c.17,14.35-14.55,25.2-28.36,20.43-19.39-6.7-19.42-34.16,0-40.88,13.82-4.77,28.54,6.1,28.37,20.45h0Zm0,0c.16-10.59-9.43-19.42-19.9-18.3-9.42,.77-16.82,9.11-16.71,18.3-.11,9.19,7.28,17.55,16.71,18.31,10.47,1.12,20.05-7.72,19.9-18.31h0Z"/>
      </g>
      <g>
        <circle class="cls-5" cx="579.74" cy="127.35" r="19.9"/>
        <path d="M599.63,127.35c.17,14.35-14.54,25.2-28.36,20.43-19.39-6.7-19.42-34.16,0-40.88,13.82-4.77,28.54,6.1,28.37,20.45h0Zm0,0c.16-10.59-9.43-19.42-19.9-18.3-9.42,.77-16.82,9.11-16.71,18.3-.12,9.19,7.28,17.55,16.71,18.31,10.47,1.12,20.05-7.72,19.9-18.31h0Z"/>
      </g>
      <g>
        <circle class="cls-5" cx="671.46" cy="290.82" r="22.19"/>
        <path d="M693.65,290.81c.19,15.96-16.23,27.95-31.53,22.55-21.28-7.5-21.29-37.62,0-45.12,15.31-5.4,31.73,6.61,31.54,22.57h0Zm0,0c-.15-19.09-23.29-27.73-35.93-13.74-6.98,7.63-6.99,19.86-.01,27.49,12.64,14.01,35.79,5.34,35.94-13.75h0Z"/>
      </g>
      <g>
        <circle class="cls-5" cx="777.85" cy="256.42" r="22.19"/>
        <path d="M800.04,256.42c.19,15.96-16.23,27.95-31.53,22.55-21.28-7.5-21.29-37.62,0-45.12,15.31-5.4,31.73,6.61,31.54,22.57h0Zm0,0c-.15-19.09-23.29-27.73-35.93-13.74-6.98,7.63-6.99,19.86-.01,27.49,12.64,14.01,35.79,5.34,35.94-13.75h0Z"/>
      </g>
      <g>
        <circle class="cls-9" cx="816.62" cy="316.31" r="19.66"/>
        <path d="M836.27,316.3c.17,14.18-14.37,24.92-28.03,20.21-19.19-6.61-19.23-33.8,0-40.44,13.67-4.71,28.21,6.04,28.04,20.23h0Zm0,0c.15-10.46-9.32-19.18-19.66-18.05-9.29,.78-16.57,9-16.47,18.05-.11,9.06,7.17,17.3,16.47,18.07,10.34,1.12,19.81-7.61,19.66-18.07h0Z"/>
      </g>
      <g>
        <circle class="cls-5" cx="834.08" cy="394.1" r="17.46"/>
        <path d="M851.55,394.1c.15,12.64-12.76,22.29-25,18.19-17.4-5.82-17.4-30.57,0-36.39,12.25-4.11,25.16,5.56,25.01,18.2h0Zm0,0c.17-9.24-8.36-17-17.46-15.86-8.11,.8-14.36,7.98-14.28,15.86-.09,7.88,6.16,15.09,14.28,15.88,9.11,1.13,17.63-6.64,17.46-15.88h0Z"/>
      </g>
      <g>
        <circle class="cls-9" cx="884" cy="429.84" r="22.44"/>
        <path d="M906.44,429.84c.19,16.14-16.41,28.25-31.88,22.78-21.49-7.59-21.49-37.99,0-45.58,15.47-5.47,32.07,6.66,31.88,22.8h0Zm0,0c-.16-19.32-23.56-28.06-36.36-13.92-7.08,7.72-7.08,20.12-.01,27.85,12.8,14.16,36.21,5.39,36.37-13.93h0Z"/>
      </g>
      <g>
        <circle class="cls-5" cx="835.65" cy="513.64" r="25.91"/>
        <path d="M861.56,513.64c-.07,23.78-28.42,36.49-46.17,20.26-11.7-10.59-11.71-29.93-.01-40.53,17.75-16.25,46.12-3.51,46.18,20.27h0Zm0,0c.14-13.89-12.09-25.41-25.91-24.31-12.65,.71-22.9,11.9-22.73,24.31-.18,12.41,10.07,23.62,22.73,24.33,13.83,1.09,26.05-10.43,25.91-24.33h0Z"/>
      </g>
      <g>
        <circle class="cls-9" cx="673.98" cy="205.52" r="27.92"/>
        <path d="M701.9,205.52c-.08,25.56-30.58,39.17-49.6,21.68-12.48-11.36-12.49-32.01-.01-43.38,19.02-17.51,49.54-3.87,49.62,21.69h0Zm0,0c.15-14.99-13.01-27.43-27.92-26.32-13.73,.69-24.93,12.84-24.74,26.32-.2,13.49,11,25.66,24.74,26.34,14.92,1.1,28.08-11.35,27.92-26.34h0Z"/>
      </g>
      <g>
        <circle class="cls-5" cx="422.59" cy="254.56" r="17.73"/>
        <path d="M440.32,254.56c.15,12.83-12.95,22.62-25.37,18.44-17.62-5.91-17.62-30.97,0-36.89,12.42-4.18,25.53,5.62,25.38,18.45h0Zm0,0c.17-9.39-8.48-17.27-17.73-16.13-8.26,.79-14.63,8.11-14.55,16.13-.09,8.03,6.28,15.36,14.55,16.15,9.26,1.13,17.9-6.76,17.73-16.15h0Z"/>
      </g>
      <g>
        <circle class="cls-5" cx="397.54" cy="375.15" r="13.63"/>
        <path d="M411.17,375.15c.19,9.89-10.02,17.75-19.7,14.65-14.25-4.5-14.26-24.81,0-29.31,9.69-3.11,19.89,4.77,19.71,14.66h0Zm0,0c.16-7.15-6.64-13.17-13.63-12.03-13.86,2.32-13.87,21.77,0,24.08,6.94,1.13,13.78-4.83,13.63-12.05h0Z"/>
      </g>
      <g>
        <circle class="cls-5" cx="242.1" cy="604.99" r="13.63"/>
        <path d="M255.73,604.99c.19,9.89-10.02,17.76-19.7,14.65-14.25-4.5-14.26-24.81,0-29.31,9.69-3.11,19.89,4.77,19.71,14.66h0Zm0,0c.16-7.15-6.64-13.17-13.63-12.03-13.86,2.32-13.87,21.77,0,24.08,6.94,1.13,13.78-4.83,13.63-12.05h0Z"/>
      </g>
      <g>
        <circle class="cls-9" cx="572.12" cy="374.36" r="13.63"/>
        <path d="M585.75,374.36c.19,9.89-10.02,17.75-19.7,14.65-14.25-4.5-14.26-24.81,0-29.31,9.69-3.11,19.89,4.77,19.71,14.66h0Zm0,0c.16-7.15-6.64-13.17-13.63-12.03-13.86,2.32-13.87,21.77,0,24.08,6.94,1.13,13.78-4.83,13.63-12.05h0Z"/>
      </g>
      <g>
        <circle class="cls-5" cx="718.69" cy="608.63" r="13.63"/>
        <path d="M732.32,608.63c.19,9.89-10.02,17.75-19.7,14.65-14.25-4.5-14.26-24.81,0-29.31,9.69-3.11,19.89,4.77,19.71,14.66h0Zm0,0c.16-7.15-6.64-13.17-13.63-12.03-13.86,2.32-13.87,21.77,0,24.08,6.94,1.13,13.78-4.83,13.63-12.05h0Z"/>
      </g>
      <g>
        <circle class="cls-9" cx="226.19" cy="367.93" r="24.11"/>
        <path d="M250.3,367.93c.15,17.37-17.58,30.23-34.19,24.33-22.87-8.2-22.87-40.47,0-48.67,16.61-5.91,34.36,6.98,34.2,24.34h0Zm0,0c-.14-20.78-25.4-30.3-39.22-15.1-7.72,8.34-7.73,21.87-.01,30.22,13.82,15.21,39.09,5.67,39.23-15.11h0Z"/>
      </g>
      <path d="M768.8,778.95c-14.56,2.52-29.2,3.1-43.9,3.18-14.7-.07-29.34-.65-43.9-3.18,14.56-2.53,29.2-3.11,43.9-3.18,14.7,.08,29.34,.66,43.9,3.18h0Z"/>
      <path d="M768.32,755.61c-10.79,2.51-21.68,3.1-32.65,3.18-10.98-.07-21.86-.66-32.65-3.18,10.79-2.53,21.67-3.11,32.65-3.18,10.97,.08,21.86,.67,32.65,3.18h0Z"/>
      <g>
        <path d="M424.75,578.13c20.38,18.3,35.4,44.46,38.51,71.9,3.6,33.11-12.74,62.54-38.51,82.19,9.8-10.81,18.37-22.52,24.4-35.36,19.21-41.07,1.93-85.12-24.4-118.73h0Z"/>
        <path d="M304.63,665.52c21.03-18.42,48.66-29.75,76.66-31.29,28.1-1.5,56.86,7.55,78.69,25.14-12.28-6.46-25.01-11.66-38.19-14.9-40.08-10.33-82.19-.02-117.16,21.06h0Z"/>
      </g>
      <path d="M598.37,833.99c-2.48,9.94-16.27,19.08-24.51,24.54-29.95,18.66-65.76,29.81-101.26,26.61-35.28-3.65-67.8-22.68-93.77-46.09-11.39-10.78-28.89-28.75-29.59-45.22,.46-20.08,37.08-8.8,48.87-6.38,28.46,7,56.25,15.1,84.91,20.26,16.47,2.85,35.15,4.99,51.84,6.94,11.6,1.32,23.24,2.56,34.85,4.22,8.06,1.55,31.01,3.44,28.65,15.12h0Zm-.62-.12c2.03-11.15-20.71-12.37-28.23-13.27-5.8-.52-11.62-.82-17.45-1.07-10.5-.42-24.76-.91-35.06-1.59-23.47-1.36-46.8-5.18-69.59-10.97-17.02-4.14-33.88-9.28-50.76-13.72-10.93-2.7-22.43-6.01-33.59-5.91-5.31,.2-9.68,1.78-9.42,7.61,.71,14.32,16.57,32.77,26.68,42.52,20.84,20.03,47.25,34.67,75.68,40.19,16.89,3.42,34.32,2.97,51.31,.56,22.79-3.49,45.41-9.98,65.71-21.1,8.64-4.96,21.97-13.31,24.72-23.26h0Z"/>
    </g>
    <g>
      <g>
        <path class="cls-7" d="M753.69,545.24c8.17,45.62,9.53,92.12,11,138.34,1.53,47.94,7.7,96.51,1.2,144.31-3.38,24.88-12.5,48.46-29.77,67.03-29.38,31.59-64.79,56.83-101.26,79.53-36.18,22.53-73.54,46.05-114.72,58.18-5.08,1.5-10.21,2.83-15.38,4-11.64,2.63-23.33,4.9-35.29,5.26-43.42,1.32-81.58-21.15-118.05-41.83-28.68-16.26-57.38-32.94-84.21-52.18-60.23-43.19-69.26-110.95-71.67-179.98-.76-21.77-1.12-43.55-1.02-65.34,.1-23.95,.25-47.92,1.7-71.83,1.46-23.92,4.22-47.84,9.69-71.2,.78-3.31,1.46-6.64,2.14-9.97"/>
        <path class="cls-7" d="M753.69,545.24c9.82,53.91,9.53,109.18,12.42,163.73,2.29,50.5,10.78,116.31-12.32,162.5-6.07,12.48-15.07,23.21-24.9,32.9-28.94,29.41-63.04,53.29-97.88,75.09-40.41,25.6-82.71,51.39-130.27,61.2-11.8,2.64-24.1,4.72-36.29,4.32-50.52-.89-94.96-32.45-137.55-56.42-17.72-10.46-35.23-21.36-52.12-33.15-11.36-7.8-22.37-16.37-31.64-26.62-52.74-57.69-47.6-142.82-48.91-215.87,.33-47.85,.07-96.15,9.47-143.26,1.3-6.63,3.03-13.6,4.34-20.08-2.91,13.3-5.94,26.89-7.76,40.33-7.22,54.33-5.83,109.4-4.72,164.08,1.79,61.57,6.65,130.88,53.37,176.36,8.43,8.39,18.05,15.49,27.91,22.08,16.97,11.5,34.53,22.07,52.3,32.29,35.52,19.5,70.38,42.84,110.47,51.44,19.88,4.27,40.12,2.91,59.84-1.51,47.13-9.19,88.72-34.02,129.21-58.96,34.98-21.3,69.08-44.41,98.27-73.27,9.79-9.4,18.77-19.75,24.89-31.95,23.23-45.07,15.69-111.63,13.74-161.47-2.52-54.57-2.11-109.84-11.88-163.76h0Z"/>
      </g>
      <ellipse class="cls-7" cx="592.47" cy="668.38" rx="77.54" ry="110.07"/>
      <ellipse class="cls-7" cx="579.74" cy="665.52" rx="62.14" ry="83.47"/>
      <path class="cls-7" d="M437.9,509.15c-7.52-21.52-45.7-19.08-89.21-3.87-43.51,15.22-69.06,40.11-61.54,61.62s36.06,6.83,79.58-8.39c43.51-15.22,78.69-27.85,71.17-49.37Z"/>
      <path class="cls-7" d="M699.29,554.67c8.44-21.17-21.95-44.39-64.77-61.47-42.82-17.08-78.43-15.06-86.87,6.11-8.44,21.17,22.73,28.82,65.55,45.9,42.82,17.08,77.65,30.63,86.1,9.46Z"/>
      <g>
        <circle class="cls-7" cx="677.57" cy="852.78" r="23.13"/>
        <path class="cls-7" d="M700.7,852.78c.19,16.62-16.92,29.07-32.83,23.42-22.05-7.83-22.06-39.03,0-46.85,15.91-5.66,33.03,6.81,32.84,23.44h0Zm0,0c-.16-19.93-24.3-28.98-37.53-14.4-7.34,7.98-7.35,20.84-.01,28.82,13.24,14.59,37.39,5.51,37.54-14.42h0Z"/>
      </g>
      <g>
        <circle class="cls-7" cx="730.16" cy="823.43" r="23.13"/>
        <path class="cls-7" d="M753.29,823.43c.19,16.62-16.92,29.07-32.83,23.42-22.05-7.83-22.06-39.03,0-46.85,15.91-5.66,33.03,6.81,32.84,23.44h0Zm0,0c-.16-19.93-24.3-28.98-37.53-14.4-7.34,7.98-7.35,20.84-.01,28.82,13.24,14.59,37.39,5.51,37.54-14.42h0Z"/>
      </g>
      <g>
        <line class="cls-7" x1="811.81" y1="519.76" x2="753" y2="543.98"/>
        <path class="cls-7" d="M811.81,519.76c-8.75,6.32-18.34,10.9-28.2,15.05-9.92,4.01-19.95,7.5-30.62,9.16,8.75-6.33,18.33-10.92,28.2-15.05,9.92-4,19.95-7.49,30.62-9.16h0Z"/>
      </g>
      <g>
        <polyline class="cls-7" points="864.4 441.49 823.43 466.56 747.61 466.56 747.61 512.42"/>
        <path class="cls-7" d="M864.4,441.49c-12.81,9.62-26.73,18.89-40.14,27.72-25.25,.66-51.46,.73-76.65-.05,0,0,2.61-2.61,2.61-2.61-.48,14.88-1.2,31.08-2.61,45.86-1.43-14.76-2.1-30.99-2.61-45.86,0,0-.09-2.52-.09-2.52l2.69-.08c24.89-.77,50.87-.72,75.82-.07,0,0-1.39,.39-1.39,.39,13.77-7.82,28.17-15.85,42.36-22.79h0Z"/>
      </g>
      <g>
        <line class="cls-7" x1="819.15" y1="402.49" x2="716.42" y2="462.41"/>
        <path class="cls-7" d="M819.15,402.49c-15.8,12.14-32.64,22.63-49.76,32.71-17.2,9.95-34.61,19.44-52.97,27.21,15.79-12.15,32.63-22.64,49.76-32.71,17.21-9.94,34.62-19.43,52.97-27.21h0Z"/>
      </g>
      <g>
        <polyline class="cls-7" points="806 333.26 767.79 389.52 674.84 435.99"/>
        <path class="cls-7" d="M806,333.26c-10.94,19.79-23.69,39.64-36.09,58.61-11.38,5.9-24.03,12.17-35.63,17.78-19.46,9.27-39.38,18.51-59.44,26.34,21.93-13.56,45.32-25.93,68.3-37.68,7.72-3.92,15.48-7.76,23.28-11.53l-1.16,1.02c12.92-18.32,26.54-37.25,40.75-54.53h0Z"/>
      </g>
      <g>
        <polyline class="cls-7" points="768.81 276.4 744.55 352.83 674.84 362 651 429.26"/>
        <path class="cls-7" d="M768.81,276.4c-6.28,26.01-13.73,51.71-21.43,77.33,0,0-.52,1.75-.52,1.75-17.39,2.61-36.72,5.14-54.18,7.29-5.81,.73-11.64,1.36-17.46,2.04l2.29-1.86c-1.52,4.17-4.72,12.55-6.33,16.69-6.36,16.54-13.08,33.41-20.18,49.63,4.69-17.06,10.12-34.41,15.59-51.26,1.63-5.03,4.42-13.56,6.13-18.55,12.18-1.81,24.36-3.59,36.56-5.19,10.24-1.33,24.75-3.25,34.88-4.37,0,0-2.43,2.04-2.43,2.04,8.48-25.37,17.21-50.66,27.07-75.54h0Z"/>
      </g>
      <g>
        <line class="cls-7" x1="661.39" y1="313.08" x2="608.19" y2="429.26"/>
        <path class="cls-7" d="M661.39,313.08c-6.55,20.37-14.89,39.98-23.7,59.42-8.95,19.38-18.34,38.5-29.49,56.76,6.54-20.37,14.88-39.98,23.7-59.42,8.96-19.37,18.35-38.5,29.49-56.76h0Z"/>
      </g>
      <g>
        <line class="cls-7" x1="572.12" y1="387.81" x2="572.12" y2="434.81"/>
        <path class="cls-7" d="M572.12,387.81c4.3,13.86,4.33,33.14,0,47-4.33-13.86-4.3-33.13,0-47h0Z"/>
      </g>
      <g>
        <polyline class="cls-7" points="651 224.29 614.31 256.09 623.48 282.99 588.63 314.18 561.11 306.84 524.42 349.65"/>
        <path class="cls-7" d="M651,224.29c-11.41,11.52-23.21,22.62-35.13,33.59,0,0,.69-2.56,.69-2.56,3.22,8.4,7.3,19.96,10.4,28.51-11.76,10.91-24.23,22.06-36.27,32.65,0,0-1.27,1.11-1.27,1.11l-1.59-.43c-9.15-2.54-18.28-5.14-27.39-7.8,0,0,2.65-.82,2.65-.82-12.05,13.32-25.99,28.44-38.67,41.11,10.56-14.46,23.4-30.56,34.71-44.5,0,0,.98-1.21,.98-1.21,9.79,2.33,19.56,4.78,29.31,7.26,0,0-2.86,.68-2.86,.68,11.33-10.32,23.34-21.05,34.92-31.11,0,0-.83,3.19-.83,3.19-2.84-8.6-6.44-20.14-9.09-28.69,0,0,1.19-.98,1.19-.98,12.55-10.25,25.22-20.35,38.24-30h0Z"/>
      </g>
      <g>
        <polyline class="cls-7" points="577.01 147.25 572.12 217.57 524.42 242.64 521.36 374.1 461.44 396.12"/>
        <path class="cls-7" d="M577.01,147.25c-.47,23.51-1.44,47-2.6,70.48,0,0-.07,1.24-.07,1.24-8.27,4.51-16.49,9.12-24.79,13.57,0,0-23.71,12.8-23.71,12.8l1.63-2.63-.64,32.87c-.76,32.4-1.9,67.91-3.34,100.11-20.38,6.89-41.54,14.09-62.05,20.43,19.29-8.21,39.62-16.35,59.17-24.06,0,0-1.43,2-1.43,2,.03-31.63,.59-66.81,1.31-98.62,0,0,.89-32.86,.89-32.86l.05-1.82,1.58-.81,23.98-12.27c7.99-4.11,16.04-8.08,24.06-12.13,0,0-1.22,1.88-1.22,1.88,2.11-23.41,4.39-46.81,7.19-70.16h0Z"/>
      </g>
      <g>
        <polyline class="cls-7" points="424.75 273.21 424.75 401.01 481.65 401.01 480.88 468.88"/>
        <path class="cls-7" d="M424.75,273.21c2.55,41.62,3.06,86,3.18,127.8,0,0-3.18-3.18-3.18-3.18,0,0,28.45,.14,28.45,.14,9.46,.14,21.78,.25,31.14,.52-.51,16.13-1.4,37.31-2.33,53.44-.24,4.19-.81,12.76-1.14,16.96-.24-4.26-.59-12.72-.75-16.98-.53-15.13-.95-35.79-1.07-50.92,0,0,2.6,2.63,2.6,2.63-17.51,.42-42.42,.52-60.1,.6,.14-42.91,.56-88.24,3.2-130.99h0Z"/>
      </g>
      <g>
        <line class="cls-7" x1="398.46" y1="388.91" x2="398.46" y2="439.66"/>
        <path class="cls-7" d="M398.46,388.91c4.3,14.96,4.33,35.79,0,50.75-4.33-14.96-4.3-35.78,0-50.75h0Z"/>
      </g>
      <g>
        <polyline class="cls-7" points="481.65 147.25 477.34 319.07 424.75 339.25"/>
        <path class="cls-7" d="M481.65,147.25c1.84,46.19,1.05,93.51-.45,139.68-.46,11.01-.86,22.97-1.49,33.92-13.29,4.73-28.07,9.82-41.5,14.17-4.47,1.44-8.95,2.88-13.46,4.23,4.26-2.01,8.54-3.94,12.83-5.86,12.37-5.51,26.34-11.47,38.87-16.62,0,0-1.58,2.24-1.58,2.24-.05-10.34,.13-21.83,.22-32.23,.81-46.2,2.41-93.49,6.56-139.53h0Z"/>
      </g>
      <g>
        <polyline class="cls-7" points="384.39 188.34 391.12 267.22 362.38 292.91 380.11 435.99"/>
        <path class="cls-7" d="M384.39,188.34c3.81,26.13,6.75,52.38,9.46,78.65,0,0,.13,1.33,.13,1.33l-1.03,.95c-8.2,7.59-20.27,18.6-28.49,25.96,0,0,1.02-2.71,1.02-2.71,6.01,47.4,11.49,95.77,14.63,143.47-8.6-47.02-15.09-95.26-20.83-142.7,0,0-.19-1.64-.19-1.64l1.21-1.07c8.18-7.33,20.6-18.11,28.99-25.4,0,0-.91,2.28-.91,2.28-1.78-26.35-3.32-52.71-3.99-79.11h0Z"/>
      </g>
      <g>
        <polyline class="cls-7" points="301.23 166.94 321.41 236.04 290.84 264.17 303.68 327.76 346.48 342.44 351.99 431.63"/>
        <path class="cls-7" d="M301.23,166.94c7.89,22.68,15.26,45.53,22.44,68.44,0,0,.42,1.36,.42,1.36,0,0-1.09,1.04-1.09,1.04-8.68,8.25-21.26,20.29-30.16,28.57,0,0,.9-2.77,.9-2.77,3.24,15.25,6.75,32.37,9.83,47.65,0,0,3.15,15.91,3.15,15.91,0,0-2.04-2.32-2.04-2.32,0,0,10.69,3.71,10.69,3.71,8.18,2.92,25.38,8.97,33.72,11.97,0,0,.08,1.76,.08,1.76,1.29,29.29,2.52,60.1,2.82,89.36-3.29-29.07-5.88-59.8-8.19-89.03,0,0,1.81,2.38,1.81,2.38-7.58-2.65-24.9-8.09-32.22-10.66-1.1-.37-11.63-3.94-12.39-4.19,0,0-.36-1.75-.36-1.75-3.09-14.79-6.7-32.87-9.61-47.7-1.17-5.85-2.32-11.73-3.41-17.6,0,0,1.21-1.09,1.21-1.09,9.13-8.1,21.89-19.78,30.98-27.68,0,0-.67,2.39-.67,2.39-6.28-23.17-12.36-46.4-17.92-69.76h0Z"/>
      </g>
      <g>
        <line class="cls-7" x1="258.43" y1="293.34" x2="293.9" y2="439.18"/>
        <path class="cls-7" d="M258.43,293.34c8.35,23.67,14.81,47.85,20.83,72.17,5.84,24.36,11.2,48.81,14.64,73.67-8.36-23.66-14.82-47.84-20.83-72.17-5.82-24.37-11.19-48.81-14.64-73.67h0Z"/>
      </g>
      <g>
        <polyline class="cls-7" points="197.28 239.22 218.07 324.83 266.09 324.83"/>
        <path class="cls-7" d="M197.28,239.22c10,27.68,17.25,56.22,23.66,84.91,0,0-2.87-2.26-2.87-2.26,12.02,.28,24.03,.8,36.01,1.78,4,.31,8,.7,12,1.18-7.99,.95-15.99,1.54-24.01,2.01-8.74,.51-17.5,.82-26.26,.99-2.13-7.85-4.13-15.75-6.03-23.65-5.1-21.46-9.72-43.04-12.51-64.95h0Z"/>
      </g>
      <g>
        <line class="cls-7" x1="238.99" y1="388.91" x2="261.61" y2="451.89"/>
        <path class="cls-7" d="M238.99,388.91c6.11,9.56,10.43,19.86,14.31,30.41,3.74,10.61,6.96,21.3,8.32,32.57-6.12-9.55-10.44-19.86-14.31-30.41-3.72-10.61-6.94-21.31-8.32-32.57h0Z"/>
      </g>
      <g>
        <polyline class="cls-7" points="130.02 338.89 152.65 411.31 222.35 432.45 231.69 483.81"/>
        <path class="cls-7" d="M130.02,338.89c6.83,16.94,13.55,36.14,19.52,53.52,0,0,5.98,18,5.98,18l-2-1.99c5.83,1.69,11.66,3.39,17.47,5.14,17.46,5.27,36.46,11.16,53.65,16.98,2.58,16.97,5.36,36.22,7.05,53.27-4.26-16.03-8.41-34.63-11.84-50.91,0,0,1.76,1.98,1.76,1.98-16.92-4.6-35.6-10.11-52.46-15.26-6.33-1.93-12.65-3.92-18.95-5.92,0,0-.44-1.49-.44-1.49,0,0-5.33-18.21-5.33-18.21-4.95-17.7-10.41-37.26-14.42-55.11h0Z"/>
      </g>
      <g>
        <polyline class="cls-7" points="101.41 447 142.38 480.63 212.09 483.07 212.09 527.71"/>
        <path class="cls-7" d="M101.41,447c14.61,9.87,28.85,20.62,42.74,31.47,0,0-1.68-.63-1.68-.63,17.44,.18,34.87,.72,52.29,1.63,6.65,.39,13.34,.71,19.99,1.21,0,0-.09,2.4-.09,2.4-.49,14.23-1.2,30.49-2.58,44.64-1.36-14.13-2.12-30.41-2.58-44.64,0,0,2.49,2.58,2.49,2.58-5.82,0-11.63-.14-17.44-.2-17.44-.31-34.86-1-52.27-2.04,0,0-.99-.05-.99-.05,0,0-.68-.58-.68-.58-13.35-11.51-26.67-23.39-39.19-35.79h0Z"/>
      </g>
      <g>
        <line class="cls-7" x1="145.56" y1="564.25" x2="207.93" y2="548.99"/>
        <path class="cls-7" d="M145.56,564.25c9.7-4.96,19.96-8.08,30.43-10.72,10.5-2.5,21.04-4.47,31.94-4.54-9.7,4.97-19.96,8.09-30.43,10.72-10.51,2.49-21.04,4.46-31.94,4.54h0Z"/>
      </g>
      <g>
        <line class="cls-7" x1="228.47" y1="611.36" x2="196.49" y2="625.9"/>
        <path class="cls-7" d="M228.47,611.36c-7.59,8.17-20.82,14.22-31.97,14.54,7.57-8.19,20.83-14.19,31.97-14.54h0Z"/>
      </g>
      <g>
        <line class="cls-7" x1="732.32" y1="613.8" x2="762.25" y2="622.26"/>
        <path class="cls-7" d="M732.32,613.8c9.91-1.66,22.36,1.82,29.93,8.46-9.92,1.69-22.34-1.85-29.93-8.46h0Z"/>
      </g>
      <g>
        <circle class="cls-7" cx="117.38" cy="571.69" r="28.66"/>
        <path class="cls-7" d="M146.05,571.69c-.08,26.22-31.38,40.15-50.87,22.21-12.77-11.64-12.78-32.78-.01-44.42,19.49-17.97,50.8-4.01,50.88,22.22h0Zm0,0c.16-15.39-13.34-28.17-28.66-27.06-14.13,.68-25.68,13.18-25.48,27.06-.21,13.89,11.34,26.4,25.48,27.08,15.32,1.1,28.82-11.69,28.66-27.08h0Z"/>
      </g>
      <g>
        <circle class="cls-7" cx="80.78" cy="435.99" r="23.22"/>
        <path class="cls-7" d="M103.99,435.99c.19,16.68-16.99,29.18-32.95,23.5-22.12-7.86-22.13-39.16,0-47.02,15.97-5.68,33.15,6.83,32.96,23.52h0Zm0,0c-.16-20-24.4-29.09-37.68-14.47-7.38,8.01-7.38,20.93-.01,28.94,13.29,14.65,37.54,5.53,37.69-14.48h0Z"/>
      </g>
      <g>
        <circle class="cls-7" cx="118.42" cy="317.45" r="24.11"/>
        <path class="cls-7" d="M142.53,317.45c.15,17.37-17.58,30.23-34.19,24.33-22.87-8.2-22.87-40.47,0-48.67,16.61-5.91,34.36,6.98,34.2,24.34h0Zm0,0c-.14-20.78-25.4-30.3-39.22-15.1-7.72,8.34-7.73,21.87-.01,30.22,13.82,15.21,39.09,5.67,39.23-15.11h0Z"/>
      </g>
      <g>
        <circle class="cls-7" cx="192.25" cy="215.64" r="24.11"/>
        <path class="cls-7" d="M216.37,215.64c.15,17.37-17.58,30.23-34.19,24.33-22.87-8.2-22.87-40.47,0-48.67,16.61-5.91,34.36,6.98,34.2,24.34h0Zm0,0c-.14-20.78-25.4-30.3-39.22-15.1-7.72,8.34-7.73,21.87-.01,30.22,13.82,15.21,39.09,5.67,39.23-15.11h0Z"/>
      </g>
      <g>
        <circle class="cls-7" cx="292.34" cy="139.71" r="27.24"/>
        <path class="cls-7" d="M319.58,139.71c-.08,24.95-29.84,38.25-48.43,21.2-12.22-11.1-12.23-31.3-.01-42.4,18.59-17.08,48.37-3.75,48.44,21.21h0Zm0,0c.15-14.61-12.69-26.74-27.24-25.63-13.36,.7-24.23,12.52-24.05,25.63-.19,13.12,10.68,24.96,24.05,25.65,14.55,1.1,27.39-11.04,27.23-25.65h0Z"/>
      </g>
      <g>
        <circle class="cls-7" cx="480.34" cy="106.06" r="40.01"/>
        <path class="cls-7" d="M520.35,106.06c.37,21.68-18.08,41.08-40.01,41.6-16.77,.87-33.3-9.56-39.8-25.11-4.5-10.38-4.51-22.6,0-32.98,6.49-15.56,23.03-26,39.81-25.12,21.94,.53,40.39,19.93,40.01,41.61h0Zm0,0c.15-21.64-18.43-39.52-40.01-38.41-20.22,.57-37.16,18.44-36.83,38.41-.34,19.98,16.59,37.87,36.83,38.43,21.59,1.1,40.16-16.79,40.01-38.43h0Z"/>
      </g>
      <g>
        <circle class="cls-7" cx="251.58" cy="273.44" r="19.9"/>
        <path class="cls-7" d="M271.48,273.44c.17,14.35-14.54,25.2-28.36,20.43-19.39-6.7-19.42-34.16,0-40.88,13.82-4.77,28.54,6.1,28.37,20.45h0Zm0,0c.16-10.59-9.43-19.42-19.9-18.3-9.42,.77-16.82,9.11-16.71,18.3-.11,9.19,7.28,17.55,16.71,18.31,10.47,1.12,20.05-7.72,19.9-18.31h0Z"/>
      </g>
      <g>
        <circle class="cls-7" cx="382.28" cy="168.45" r="19.9"/>
        <path class="cls-7" d="M402.17,168.45c.17,14.35-14.55,25.2-28.36,20.43-19.39-6.7-19.42-34.16,0-40.88,13.82-4.77,28.54,6.1,28.37,20.45h0Zm0,0c.16-10.59-9.43-19.42-19.9-18.3-9.42,.77-16.82,9.11-16.71,18.3-.11,9.19,7.28,17.55,16.71,18.31,10.47,1.12,20.05-7.72,19.9-18.31h0Z"/>
      </g>
      <g>
        <circle class="cls-7" cx="579.74" cy="127.35" r="19.9"/>
        <path class="cls-7" d="M599.63,127.35c.17,14.35-14.54,25.2-28.36,20.43-19.39-6.7-19.42-34.16,0-40.88,13.82-4.77,28.54,6.1,28.37,20.45h0Zm0,0c.16-10.59-9.43-19.42-19.9-18.3-9.42,.77-16.82,9.11-16.71,18.3-.12,9.19,7.28,17.55,16.71,18.31,10.47,1.12,20.05-7.72,19.9-18.31h0Z"/>
      </g>
      <g>
        <circle class="cls-7" cx="671.46" cy="290.82" r="22.19"/>
        <path class="cls-7" d="M693.65,290.81c.19,15.96-16.23,27.95-31.53,22.55-21.28-7.5-21.29-37.62,0-45.12,15.31-5.4,31.73,6.61,31.54,22.57h0Zm0,0c-.15-19.09-23.29-27.73-35.93-13.74-6.98,7.63-6.99,19.86-.01,27.49,12.64,14.01,35.79,5.34,35.94-13.75h0Z"/>
      </g>
      <g>
        <circle class="cls-7" cx="777.85" cy="256.42" r="22.19"/>
        <path class="cls-7" d="M800.04,256.42c.19,15.96-16.23,27.95-31.53,22.55-21.28-7.5-21.29-37.62,0-45.12,15.31-5.4,31.73,6.61,31.54,22.57h0Zm0,0c-.15-19.09-23.29-27.73-35.93-13.74-6.98,7.63-6.99,19.86-.01,27.49,12.64,14.01,35.79,5.34,35.94-13.75h0Z"/>
      </g>
      <g>
        <circle class="cls-7" cx="816.62" cy="316.31" r="19.66"/>
        <path class="cls-7" d="M836.27,316.3c.17,14.18-14.37,24.92-28.03,20.21-19.19-6.61-19.23-33.8,0-40.44,13.67-4.71,28.21,6.04,28.04,20.23h0Zm0,0c.15-10.46-9.32-19.18-19.66-18.05-9.29,.78-16.57,9-16.47,18.05-.11,9.06,7.17,17.3,16.47,18.07,10.34,1.12,19.81-7.61,19.66-18.07h0Z"/>
      </g>
      <g>
        <circle class="cls-7" cx="834.08" cy="394.1" r="17.46"/>
        <path class="cls-7" d="M851.55,394.1c.15,12.64-12.76,22.29-25,18.19-17.4-5.82-17.4-30.57,0-36.39,12.25-4.11,25.16,5.56,25.01,18.2h0Zm0,0c.17-9.24-8.36-17-17.46-15.86-8.11,.8-14.36,7.98-14.28,15.86-.09,7.88,6.16,15.09,14.28,15.88,9.11,1.13,17.63-6.64,17.46-15.88h0Z"/>
      </g>
      <g>
        <circle class="cls-7" cx="884" cy="429.84" r="22.44"/>
        <path class="cls-7" d="M906.44,429.84c.19,16.14-16.41,28.25-31.88,22.78-21.49-7.59-21.49-37.99,0-45.58,15.47-5.47,32.07,6.66,31.88,22.8h0Zm0,0c-.16-19.32-23.56-28.06-36.36-13.92-7.08,7.72-7.08,20.12-.01,27.85,12.8,14.16,36.21,5.39,36.37-13.93h0Z"/>
      </g>
      <g>
        <circle class="cls-7" cx="835.65" cy="513.64" r="25.91"/>
        <path class="cls-7" d="M861.56,513.64c-.07,23.78-28.42,36.49-46.17,20.26-11.7-10.59-11.71-29.93-.01-40.53,17.75-16.25,46.12-3.51,46.18,20.27h0Zm0,0c.14-13.89-12.09-25.41-25.91-24.31-12.65,.71-22.9,11.9-22.73,24.31-.18,12.41,10.07,23.62,22.73,24.33,13.83,1.09,26.05-10.43,25.91-24.33h0Z"/>
      </g>
      <g>
        <circle class="cls-7" cx="673.98" cy="205.52" r="27.92"/>
        <path class="cls-7" d="M701.9,205.52c-.08,25.56-30.58,39.17-49.6,21.68-12.48-11.36-12.49-32.01-.01-43.38,19.02-17.51,49.54-3.87,49.62,21.69h0Zm0,0c.15-14.99-13.01-27.43-27.92-26.32-13.73,.69-24.93,12.84-24.74,26.32-.2,13.49,11,25.66,24.74,26.34,14.92,1.1,28.08-11.35,27.92-26.34h0Z"/>
      </g>
      <g>
        <circle class="cls-7" cx="422.59" cy="254.56" r="17.73"/>
        <path class="cls-7" d="M440.32,254.56c.15,12.83-12.95,22.62-25.37,18.44-17.62-5.91-17.62-30.97,0-36.89,12.42-4.18,25.53,5.62,25.38,18.45h0Zm0,0c.17-9.39-8.48-17.27-17.73-16.13-8.26,.79-14.63,8.11-14.55,16.13-.09,8.03,6.28,15.36,14.55,16.15,9.26,1.13,17.9-6.76,17.73-16.15h0Z"/>
      </g>
      <g>
        <circle class="cls-7" cx="397.54" cy="375.15" r="13.63"/>
        <path class="cls-7" d="M411.17,375.15c.19,9.89-10.02,17.75-19.7,14.65-14.25-4.5-14.26-24.81,0-29.31,9.69-3.11,19.89,4.77,19.71,14.66h0Zm0,0c.16-7.15-6.64-13.17-13.63-12.03-13.86,2.32-13.87,21.77,0,24.08,6.94,1.13,13.78-4.83,13.63-12.05h0Z"/>
      </g>
      <g>
        <circle class="cls-7" cx="242.1" cy="604.99" r="13.63"/>
        <path class="cls-7" d="M255.73,604.99c.19,9.89-10.02,17.76-19.7,14.65-14.25-4.5-14.26-24.81,0-29.31,9.69-3.11,19.89,4.77,19.71,14.66h0Zm0,0c.16-7.15-6.64-13.17-13.63-12.03-13.86,2.32-13.87,21.77,0,24.08,6.94,1.13,13.78-4.83,13.63-12.05h0Z"/>
      </g>
      <g>
        <circle class="cls-7" cx="572.12" cy="374.36" r="13.63"/>
        <path class="cls-7" d="M585.75,374.36c.19,9.89-10.02,17.75-19.7,14.65-14.25-4.5-14.26-24.81,0-29.31,9.69-3.11,19.89,4.77,19.71,14.66h0Zm0,0c.16-7.15-6.64-13.17-13.63-12.03-13.86,2.32-13.87,21.77,0,24.08,6.94,1.13,13.78-4.83,13.63-12.05h0Z"/>
      </g>
      <g>
        <circle class="cls-7" cx="718.69" cy="608.63" r="13.63"/>
        <path class="cls-7" d="M732.32,608.63c.19,9.89-10.02,17.75-19.7,14.65-14.25-4.5-14.26-24.81,0-29.31,9.69-3.11,19.89,4.77,19.71,14.66h0Zm0,0c.16-7.15-6.64-13.17-13.63-12.03-13.86,2.32-13.87,21.77,0,24.08,6.94,1.13,13.78-4.83,13.63-12.05h0Z"/>
      </g>
      <g>
        <circle class="cls-7" cx="226.19" cy="367.93" r="24.11"/>
        <path class="cls-7" d="M250.3,367.93c.15,17.37-17.58,30.23-34.19,24.33-22.87-8.2-22.87-40.47,0-48.67,16.61-5.91,34.36,6.98,34.2,24.34h0Zm0,0c-.14-20.78-25.4-30.3-39.22-15.1-7.72,8.34-7.73,21.87-.01,30.22,13.82,15.21,39.09,5.67,39.23-15.11h0Z"/>
      </g>
      <g>
        <line class="cls-7" x1="768.8" y1="778.95" x2="681.01" y2="778.95"/>
        <path class="cls-7" d="M768.8,778.95c-14.56,2.52-29.2,3.1-43.9,3.18-14.7-.07-29.34-.65-43.9-3.18,14.56-2.53,29.2-3.11,43.9-3.18,14.7,.08,29.34,.66,43.9,3.18h0Z"/>
      </g>
      <g>
        <line class="cls-7" x1="768.32" y1="755.61" x2="703.02" y2="755.61"/>
        <path class="cls-7" d="M768.32,755.61c-10.79,2.51-21.68,3.1-32.65,3.18-10.98-.07-21.86-.66-32.65-3.18,10.79-2.53,21.67-3.11,32.65-3.18,10.97,.08,21.86,.67,32.65,3.18h0Z"/>
      </g>
      <g>
        <g>
          <path class="cls-7" d="M424.75,578.13s80.64,80.13,0,154.09"/>
          <path class="cls-7" d="M424.75,578.13c20.38,18.3,35.4,44.46,38.51,71.9,3.6,33.11-12.74,62.54-38.51,82.19,9.8-10.81,18.37-22.52,24.4-35.36,19.21-41.07,1.93-85.12-24.4-118.73h0Z"/>
        </g>
        <g>
          <path class="cls-7" d="M304.63,665.52c10.76-7.84,52.02-35.87,105.43-26.33,21.73,3.89,38.66,12.78,49.92,20.17"/>
          <path class="cls-7" d="M304.63,665.52c21.03-18.42,48.66-29.75,76.66-31.29,28.1-1.5,56.86,7.55,78.69,25.14-12.28-6.46-25.01-11.66-38.19-14.9-40.08-10.33-82.19-.02-117.16,21.06h0Z"/>
        </g>
      </g>
      <g>
        <path class="cls-7" d="M598.06,833.93c-3.9,19.72-77.34,58.91-139.27,46.66-61.93-12.25-111.04-68.74-107.14-88.46,3.9-19.72,59.33,4.8,121.26,17.05,61.93,12.25,129.05,5.03,125.15,24.75Z"/>
        <path class="cls-7" d="M598.37,833.99c-2.48,9.94-16.27,19.08-24.51,24.54-29.95,18.66-65.76,29.81-101.26,26.61-35.28-3.65-67.8-22.68-93.77-46.09-11.39-10.78-28.89-28.75-29.59-45.22,.46-20.08,37.08-8.8,48.87-6.38,28.46,7,56.25,15.1,84.91,20.26,16.47,2.85,35.15,4.99,51.84,6.94,11.6,1.32,23.24,2.56,34.85,4.22,8.06,1.55,31.01,3.44,28.65,15.12h0Zm-.62-.12c2.03-11.15-20.71-12.37-28.23-13.27-5.8-.52-11.62-.82-17.45-1.07-10.5-.42-24.76-.91-35.06-1.59-23.47-1.36-46.8-5.18-69.59-10.97-17.02-4.14-33.88-9.28-50.76-13.72-10.93-2.7-22.43-6.01-33.59-5.91-5.31,.2-9.68,1.78-9.42,7.61,.71,14.32,16.57,32.77,26.68,42.52,20.84,20.03,47.25,34.67,75.68,40.19,16.89,3.42,34.32,2.97,51.31,.56,22.79-3.49,45.41-9.98,65.71-21.1,8.64-4.96,21.97-13.31,24.72-23.26h0Z"/>
      </g>
    </g>
  </g>
</svg>