<svg width="15" height="15" viewBox="0 0 15 15" fill="none" xmlns="http://www.w3.org/2000/svg">
<path d="M10.6297 8.71624C10.1687 8.71624 9.91372 8.71624 9.66009 8.71624C6.97586 8.71624 4.29162 8.71889 1.60739 8.71225C1.3247 8.71093 1.03012 8.69102 0.764605 8.6074C0.207152 8.43221 -0.0266621 7.99556 0.00239946 7.4315C0.032782 6.85416 0.361706 6.4905 0.912555 6.36044C1.14373 6.30602 1.39339 6.32328 1.63513 6.32328C4.31936 6.32062 7.0036 6.3246 9.68783 6.31797C9.93882 6.31797 10.1898 6.26886 10.5993 6.22506C10.3589 5.91051 10.2268 5.69683 10.0564 5.52297C8.95997 4.40413 7.85299 3.29724 6.75525 2.17972C6.12118 1.53337 6.07098 0.930819 6.58749 0.382681C7.10928 -0.170765 7.76316 -0.12564 8.43026 0.530002C10.4289 2.49295 12.4249 4.45854 14.4156 6.42812C15.191 7.19525 15.195 7.75268 14.4262 8.51981C12.4275 10.5133 10.4236 12.5028 8.41572 14.4869C7.7843 15.1121 7.13041 15.1638 6.62448 14.6542C6.07098 14.0967 6.11458 13.473 6.77242 12.804C7.87016 11.6879 8.97846 10.581 10.0736 9.46213C10.244 9.29092 10.3668 9.07591 10.6297 8.71624Z" fill="#7C78B3"/>
</svg>
