<svg width="15" height="15" viewBox="0 0 15 15" fill="none" xmlns="http://www.w3.org/2000/svg">
<path d="M4.37031 6.28395C4.83133 6.28395 5.08628 6.28395 5.33991 6.28395C8.02414 6.28395 10.7084 6.28129 13.3926 6.28793C13.6753 6.28926 13.9699 6.30917 14.2354 6.39278C14.7928 6.56797 15.0267 7.00462 14.9976 7.56869C14.9672 8.14602 14.6383 8.50968 14.0874 8.63975C13.8563 8.69416 13.6066 8.67691 13.3649 8.67691C10.6806 8.67956 7.9964 8.67558 5.31217 8.68222C5.06118 8.68222 4.8102 8.73132 4.40069 8.77512C4.64111 9.08967 4.77321 9.30335 4.94362 9.47722C6.04003 10.5961 7.14701 11.7029 8.24475 12.8205C8.87882 13.4668 8.92902 14.0694 8.41251 14.6175C7.89072 15.1709 7.23684 15.1258 6.56974 14.4702C4.5711 12.5072 2.5751 10.5416 0.58438 8.57206C-0.191036 7.80493 -0.194998 7.2475 0.573813 6.48038C2.57246 4.48691 4.57638 2.49742 6.58427 0.513238C7.2157 -0.111879 7.86959 -0.16364 8.37552 0.346009C8.92901 0.903437 8.88542 1.52723 8.22757 2.19614C7.12984 3.31232 6.02154 4.41922 4.92644 5.53806C4.75604 5.70927 4.63319 5.92428 4.37031 6.28395Z" fill="#7C78B3"/>
</svg>
