<svg width="21" height="22" viewBox="0 0 21 22" fill="none" xmlns="http://www.w3.org/2000/svg">
<path d="M10.3151 11.3237C9.22961 11.3237 8.14413 11.3324 7.06011 11.3208C6.09831 11.3106 5.5221 10.8013 5.509 9.98355C5.49591 9.13379 6.08521 8.58669 7.07902 8.58087C9.22525 8.56777 11.3715 8.56777 13.5177 8.58087C14.5188 8.58669 15.1095 9.12215 15.1052 9.96755C15.1008 10.8115 14.5144 11.3135 13.4973 11.3222C12.4366 11.3309 11.3758 11.3237 10.3136 11.3237H10.3151Z" fill="#7C78B3"/>
<path d="M20.6259 7.72687C20.6259 7.63666 20.6259 7.54644 20.6259 7.45623C20.6259 7.17249 20.6055 6.9033 20.5691 6.64575C20.4396 5.42641 19.8562 4.40204 18.8056 3.82729C18.4433 3.59302 18.03 3.39368 17.5601 3.23507C17.4466 3.19724 17.3374 3.14922 17.1832 3.08957C17.1832 2.5381 17.1992 1.98372 17.1803 1.43079C17.1512 0.597035 16.6026 0.0193727 15.8503 0.000456806C15.1112 -0.0184591 14.503 0.551928 14.4477 1.36968C14.4113 1.91678 14.4404 2.4668 14.4404 3.05465H13.9078V3.02991H11.683C11.683 2.60648 11.683 2.24563 11.683 1.88623C11.6787 0.653782 11.1839 -0.0140939 10.2862 0.000456806C9.41167 0.0150075 8.93586 0.666878 8.9315 1.85567C8.93004 2.2529 8.9315 2.65159 8.9315 3.0561H6.1916C6.1916 2.46825 6.22216 1.91678 6.18433 1.37113C6.13049 0.551928 5.52227 -0.017004 4.78164 0.000456806C4.02937 0.0193727 3.47936 0.597035 3.45171 1.43079C3.43279 1.98372 3.4488 2.5381 3.4488 3.08957C3.29456 3.14922 3.18543 3.19724 3.07194 3.23507C1.03193 3.92332 0.00756202 5.32746 0.00465189 7.45623C0.00174175 10.9076 -0.00553359 14.3605 0.00756202 17.8119C0.0162924 20.1255 1.74782 21.9458 4.05556 21.9676C8.23597 22.0098 12.4164 22.0127 16.5953 21.9647C18.8405 21.9385 20.5866 20.1342 20.6011 17.9182C20.623 14.5206 20.6273 11.123 20.6011 7.72687H20.6259ZM17.8525 17.5093C17.8525 18.7432 17.3753 19.2277 16.1501 19.2292C12.2578 19.2336 8.36693 19.2336 4.47462 19.2292C3.24072 19.2292 2.76201 18.749 2.76201 17.5209C2.7591 14.1888 2.7591 10.8553 2.76201 7.52316C2.76201 6.33728 3.23636 5.85129 4.4266 5.84401C6.38513 5.83383 8.34219 5.8411 10.3007 5.8411C12.0526 5.8411 13.8031 5.83819 15.555 5.8411C15.7529 5.8411 15.9507 5.8411 16.1486 5.84256C17.4073 5.85856 17.8511 6.31836 17.8525 7.58136C17.854 10.8902 17.8554 14.1976 17.8525 17.5064V17.5093Z" fill="#7C78B3"/>
</svg>
